<svg width="24" height="24" viewBox="0 0 24 24" fill="none" xmlns="http://www.w3.org/2000/svg">
<g clip-path="url(#clip0_131_7109)">
<path d="M23.4844 24.0469C15.874 24.0469 8.26367 24.0469 0.63195 24.0304C0.422684 23.8375 0.234779 23.6609 0.046875 23.4844C0.0468753 23.2021 0.0468753 22.9199 0.0632493 22.616C0.390138 22.1367 0.826053 21.9687 1.36608 22.0292C1.48945 22.043 1.61679 22.0205 1.74036 22.0334C1.95453 22.0557 2.02372 21.9723 2.01983 21.757C2.00798 21.1014 2.01568 20.4455 2.01568 19.7896C2.01569 14.863 2.01566 9.93647 2.01573 5.0099C2.01574 4.40624 2.16714 4.19938 2.73324 3.98636C3.99786 3.51051 5.26073 3.03001 6.52335 2.54888C8.57696 1.76635 10.6301 0.982481 12.682 0.19545C12.7591 0.16584 12.8214 0.0972826 12.8906 0.046875C13.1416 0.0468751 13.3926 0.0468751 13.6642 0.0634017C14.0195 0.350658 14.0693 0.709742 14.0688 1.11981C14.06 7.93108 14.0626 14.7424 14.0626 21.5537C14.0626 21.6474 14.0676 21.7414 14.0625 21.8348C14.0551 21.9714 14.1074 22.0363 14.2515 22.0317C14.4544 22.0251 14.6578 22.0251 14.8607 22.0316C15.0073 22.0364 15.0537 21.9658 15.0469 21.832C15.0421 21.7385 15.0468 21.6446 15.0468 21.5508C15.0469 16.622 15.0469 11.6932 15.0469 6.7644C15.0469 6.67066 15.0442 6.57679 15.0483 6.48323C15.06 6.21839 15.2294 6.04325 15.4976 6.05244C15.6488 6.05762 15.8063 6.09279 15.947 6.14935C16.3291 6.30301 16.7027 6.47753 17.0814 6.63976C18.9253 7.42965 20.7665 8.22621 22.6171 8.99998C22.9563 9.14179 23.0663 9.35041 23.0658 9.69352C23.0607 13.6694 23.0625 17.6452 23.0627 21.6211C23.0627 21.707 23.0476 21.7975 23.0702 21.8773C23.0868 21.9358 23.1466 22.0147 23.1989 22.0251C23.4999 22.085 23.7183 22.2614 23.9118 22.4836C23.9494 22.5268 24.0015 22.5574 24.0469 22.5938C24.0469 22.876 24.0469 23.1582 24.0304 23.4618C23.8375 23.6711 23.6609 23.859 23.4844 24.0469ZM16.7812 12.3053C16.7184 12.4356 16.6059 12.5641 16.6014 12.6964C16.5817 13.2686 16.5716 13.8431 16.6023 14.4143C16.6212 14.7648 16.9279 14.9957 17.2734 14.9988C17.6564 15.0022 17.9607 14.7849 17.9926 14.4144C18.0364 13.9043 18.0493 13.3892 18.035 12.8773C18.0258 12.5477 17.8949 12.2457 17.5411 12.1298C17.2749 12.0426 17.0189 12.0746 16.7812 12.3053ZM17.9136 20.6465C17.9426 20.5672 17.9957 20.4881 17.9967 20.4084C18.004 19.8354 18.0264 19.2608 17.9918 18.6898C17.9689 18.3105 17.6653 18.0928 17.2842 18.0947C16.9213 18.0964 16.6304 18.3213 16.5999 18.6915C16.5586 19.194 16.5447 19.7009 16.5571 20.2049C16.5657 20.5565 16.7108 20.8721 17.0841 20.9768C17.3345 21.0471 17.6417 21.047 17.9136 20.6465ZM6.03748 8.97918C6.33414 8.85985 6.50385 8.63798 6.5115 8.32155C6.52395 7.80647 6.52117 7.29076 6.51223 6.77553C6.50779 6.51994 6.39407 6.31061 6.1647 6.18084C5.65929 5.89491 5.07675 6.23853 5.06475 6.83452C5.05595 7.27164 5.06201 7.70907 5.06279 8.14637C5.06387 8.75942 5.3937 9.05514 6.03748 8.97918ZM10.432 6.09446C9.88464 6.00265 9.58658 6.4068 9.56981 6.78217C9.54717 7.28872 9.55311 7.79734 9.56739 8.3045C9.57871 8.7069 9.93486 9.03187 10.3124 9.01579C10.7282 8.99809 11.0114 8.70064 11.0146 8.26974C11.0181 7.80125 11.0166 7.3327 11.0152 6.86418C11.014 6.45265 10.8645 6.24496 10.432 6.09446ZM6.50863 12.667C6.35147 12.2078 6.09416 12.0341 5.65906 12.0936C5.3454 12.1364 5.07341 12.4467 5.06618 12.8013C5.056 13.3005 5.05362 13.8004 5.06689 14.2994C5.07756 14.7007 5.43086 15.0296 5.80681 15.0174C6.22013 15.004 6.51152 14.7035 6.51433 14.2763C6.51778 13.7535 6.51361 13.2306 6.50863 12.667ZM9.66077 14.631C9.91712 14.9861 10.1949 15.0968 10.5358 14.9797C10.8441 14.8738 11.0147 14.6 11.0154 14.2063C11.0162 13.7612 11.0167 13.3161 11.0153 12.871C11.0137 12.3932 10.7226 12.0737 10.29 12.0721C9.88067 12.0705 9.5666 12.417 9.56333 12.8794C9.56046 13.2855 9.55461 13.6918 9.56643 14.0975C9.57131 14.2648 9.61892 14.4309 9.66077 14.631ZM20.2778 12.2863C20.2063 12.4634 20.084 12.6375 20.0732 12.8183C20.0443 13.3008 20.0569 13.7863 20.0652 14.2704C20.0723 14.6893 20.4144 15.028 20.8023 15.0187C21.2227 15.0086 21.5121 14.7017 21.5149 14.2566C21.5176 13.8115 21.5098 13.3662 21.5176 12.9211C21.5232 12.6035 21.4447 12.3309 21.1483 12.1724C20.8513 12.0136 20.5654 12.0532 20.2778 12.2863ZM5.06256 19.7574C5.06279 19.929 5.0584 20.1007 5.06418 20.272C5.07829 20.6899 5.41474 21.0279 5.80207 21.0188C6.22186 21.0088 6.51215 20.7021 6.51484 20.2587C6.51769 19.7909 6.51704 19.323 6.5151 18.8551C6.51318 18.3934 6.22654 18.0829 5.79885 18.0747C5.39725 18.067 5.07158 18.4051 5.06389 18.8451C5.05885 19.1336 5.06269 19.4222 5.06256 19.7574ZM11.0157 19.4766C11.0156 19.2583 11.0178 19.0399 11.0149 18.8216C11.0093 18.3922 10.7278 18.0962 10.3116 18.0785C9.92986 18.0623 9.58011 18.3787 9.56776 18.7852C9.55238 19.2915 9.55301 19.799 9.56746 20.3055C9.5789 20.7065 9.93554 21.0317 10.3118 21.016C10.7268 20.9986 11.0096 20.7011 11.0149 20.272C11.0179 20.0225 11.0156 19.773 11.0157 19.4766ZM20.0626 19.1506C20.0629 19.5327 20.0538 19.9152 20.0663 20.2969C20.0791 20.6884 20.4126 21.0149 20.7812 21.0201C21.1634 21.0255 21.501 20.7308 21.5107 20.3504C21.5245 19.8127 21.5313 19.2736 21.5091 18.7364C21.4867 18.1934 20.8544 17.8947 20.4042 18.1957C20.0728 18.4172 20.0471 18.7531 20.0626 19.1506Z" fill="#344054"/>
<path d="M0.046875 23.5068C0.234779 23.6609 0.422684 23.8375 0.609982 24.0304C0.425532 24.0469 0.24169 24.0469 0.0468753 24.0469C0.0468753 23.8744 0.0468753 23.7019 0.046875 23.5068Z" fill="white"/>
<path d="M23.5068 24.0469C23.6609 23.859 23.8375 23.6711 24.0304 23.4838C24.0469 23.6682 24.0469 23.852 24.0469 24.0469C23.8744 24.0469 23.7019 24.0469 23.5068 24.0469Z" fill="white"/>
<path d="M16.7935 12.2931C17.0188 12.0746 17.2748 12.0426 17.5411 12.1298C17.8949 12.2457 18.0258 12.5477 18.035 12.8773C18.0493 13.3892 18.0364 13.9043 17.9925 14.4144C17.9607 14.7849 17.6564 15.0022 17.2734 14.9988C16.9279 14.9957 16.6211 14.7648 16.6023 14.4144C16.5716 13.8431 16.5817 13.2686 16.6014 12.6964C16.6059 12.5642 16.7184 12.4356 16.7935 12.2931Z" fill="white"/>
<path d="M17.9071 20.6631C17.6417 21.047 17.3345 21.0471 17.0842 20.9768C16.7108 20.8721 16.5657 20.5565 16.5571 20.205C16.5447 19.7009 16.5586 19.194 16.5999 18.6915C16.6304 18.3213 16.9213 18.0964 17.2843 18.0947C17.6653 18.0929 17.9689 18.3105 17.9918 18.6899C18.0264 19.2608 18.004 19.8354 17.9967 20.4084C17.9957 20.4881 17.9426 20.5672 17.9071 20.6631Z" fill="white"/>
<path d="M6.02055 8.98531C5.39369 9.05513 5.06387 8.75941 5.06278 8.14636C5.062 7.70906 5.05595 7.27163 5.06475 6.8345C5.07674 6.23852 5.65928 5.8949 6.1647 6.18083C6.39406 6.31059 6.50779 6.51993 6.51222 6.77552C6.52117 7.29075 6.52394 7.80646 6.5115 8.32154C6.50385 8.63797 6.33413 8.85983 6.02055 8.98531Z" fill="white"/>
<path d="M10.4501 6.09575C10.8645 6.24496 11.014 6.45266 11.0152 6.86419C11.0166 7.33271 11.0181 7.80125 11.0146 8.26975C11.0114 8.70064 10.7282 8.99809 10.3124 9.0158C9.93485 9.03188 9.57871 8.70691 9.56738 8.3045C9.55311 7.79735 9.54717 7.28873 9.5698 6.78218C9.58657 6.40681 9.88464 6.00266 10.4501 6.09575Z" fill="white"/>
<path d="M6.51069 12.6874C6.51362 13.2306 6.51778 13.7535 6.51434 14.2763C6.51153 14.7035 6.22014 15.004 5.80682 15.0174C5.43087 15.0296 5.07757 14.7007 5.0669 14.2994C5.05363 13.8004 5.05601 13.3005 5.06619 12.8013C5.07341 12.4467 5.34541 12.1364 5.65907 12.0936C6.09416 12.0341 6.35147 12.2078 6.51069 12.6874Z" fill="white"/>
<path d="M9.65393 14.6143C9.61892 14.4309 9.57131 14.2648 9.56643 14.0975C9.55461 13.6918 9.56046 13.2855 9.56333 12.8794C9.56659 12.417 9.88067 12.0705 10.29 12.072C10.7226 12.0737 11.0137 12.3932 11.0153 12.871C11.0167 13.3161 11.0162 13.7612 11.0154 14.2063C11.0147 14.6 10.8441 14.8738 10.5357 14.9797C10.1949 15.0968 9.91712 14.9861 9.65393 14.6143Z" fill="white"/>
<path d="M20.2901 12.274C20.5655 12.0533 20.8513 12.0137 21.1483 12.1724C21.4447 12.3309 21.5232 12.6035 21.5176 12.9211C21.5098 13.3662 21.5177 13.8115 21.5149 14.2567C21.5121 14.7017 21.2227 15.0087 20.8023 15.0187C20.4144 15.028 20.0723 14.6893 20.0652 14.2704C20.0569 13.7863 20.0443 13.3008 20.0732 12.8183C20.084 12.6375 20.2063 12.4635 20.2901 12.274Z" fill="white"/>
<path d="M5.06257 19.7341C5.0627 19.4222 5.05885 19.1336 5.0639 18.8452C5.07159 18.4052 5.39726 18.067 5.79886 18.0747C6.22655 18.083 6.51319 18.3934 6.5151 18.8552C6.51705 19.323 6.5177 19.7909 6.51485 20.2587C6.51215 20.7021 6.22187 21.0089 5.80207 21.0188C5.41475 21.028 5.0783 20.6899 5.06419 20.2721C5.05841 20.1007 5.0628 19.929 5.06257 19.7341Z" fill="white"/>
<path d="M11.0157 19.5C11.0156 19.773 11.0179 20.0225 11.0149 20.272C11.0096 20.7011 10.7268 20.9986 10.3118 21.016C9.93554 21.0317 9.5789 20.7065 9.56746 20.3055C9.55301 19.799 9.55239 19.2915 9.56776 18.7852C9.58011 18.3787 9.92986 18.0623 10.3116 18.0785C10.7278 18.0962 11.0093 18.3922 11.0149 18.8216C11.0178 19.0399 11.0156 19.2583 11.0157 19.5Z" fill="white"/>
<path d="M20.0626 19.1276C20.0471 18.7531 20.0728 18.4172 20.4042 18.1956C20.8544 17.8947 21.4867 18.1934 21.5091 18.7364C21.5313 19.2736 21.5245 19.8126 21.5107 20.3504C21.501 20.7308 21.1634 21.0255 20.7812 21.0201C20.4126 21.0149 20.0791 20.6884 20.0663 20.2969C20.0538 19.9152 20.0629 19.5327 20.0626 19.1276Z" fill="white"/>
</g>
<defs>
<clipPath id="clip0_131_7109">
<rect width="24" height="24" fill="white"/>
</clipPath>
</defs>
</svg>
