<svg width="18" height="19" viewBox="0 0 18 19" fill="none" xmlns="http://www.w3.org/2000/svg">
<path d="M17.1641 6.49219C16.6563 6.03646 16.0573 5.2487 15.3672 4.12891C14.6641 2.99609 14.0717 1.88281 13.5899 0.789062C13.4987 0.346354 13.2188 0.125 12.75 0.125H5.25004C5.05473 0.125 4.87894 0.170572 4.72269 0.261719C4.55342 0.365885 4.44926 0.509115 4.41019 0.691406C3.95446 1.78516 3.38155 2.89193 2.69144 4.01172C1.98832 5.14453 1.36983 5.97135 0.835975 6.49219C0.653683 6.63542 0.556027 6.83073 0.543006 7.07812C0.529985 7.32552 0.6016 7.54036 0.75785 7.72266C1.50004 8.63411 2.30733 9.81901 3.17972 11.2773C3.94795 12.4883 4.79431 14.0833 5.71879 16.0625C6.09639 16.8177 6.34379 17.3516 6.46098 17.6641C6.56514 17.9375 6.6628 18.1198 6.75394 18.2109C6.84509 18.6536 7.12504 18.875 7.59379 18.875H10.4063C10.6016 18.875 10.7774 18.8294 10.9336 18.7383C11.1029 18.6341 11.2071 18.4909 11.2461 18.3086C11.2461 18.2174 11.3438 18.0286 11.5391 17.7422C11.6563 17.4297 11.9037 16.9023 12.2813 16.1602C12.6719 15.2617 13.5183 13.6667 14.8204 11.375C15.9792 9.5651 16.7865 8.38021 17.2422 7.82031C17.3985 7.58594 17.4701 7.34505 17.4571 7.09766C17.444 6.83724 17.3464 6.63542 17.1641 6.49219ZM13.2188 10.3398C12.086 12.2799 11.2136 13.9401 10.6016 15.3203C10.5365 15.4766 10.4258 15.7109 10.2696 16.0234C10.1133 16.3359 10.0026 16.5703 9.93754 16.7266V9.22656C10.211 9.08333 10.4323 8.86198 10.6016 8.5625C10.7839 8.26302 10.875 7.95052 10.875 7.625C10.875 7.10417 10.6927 6.66146 10.3282 6.29688C9.96358 5.93229 9.52087 5.75 9.00004 5.75C8.4792 5.75 8.0365 5.93229 7.67191 6.29688C7.30733 6.66146 7.12504 7.10417 7.12504 7.625C7.12504 7.95052 7.20967 8.26302 7.37894 8.5625C7.56124 8.86198 7.7891 9.08333 8.06254 9.22656V16.6289C7.93233 16.3164 7.71098 15.8477 7.39848 15.2227C6.27868 12.9701 5.40629 11.3099 4.78129 10.2422C3.974 8.96615 3.28389 7.97005 2.71097 7.25391C3.27087 6.55078 3.84379 5.72396 4.42973 4.77344C5.01566 3.82292 5.51045 2.89844 5.9141 2H12.1836C12.6263 2.96354 13.1276 3.92057 13.6875 4.87109C14.2605 5.82161 14.8204 6.61589 15.3672 7.25391C14.6901 8.02214 13.974 9.05078 13.2188 10.3398Z" fill="white"/>
</svg>
