<svg width="24" height="24" viewBox="0 0 24 24" fill="none" xmlns="http://www.w3.org/2000/svg">
<g clip-path="url(#clip0_131_7100)">
<path d="M14.6001 24.0469C14.4531 23.8829 14.3227 23.7228 14.2041 23.5544C13.8561 23.0601 13.4811 22.5813 13.1742 22.0624C12.544 20.997 12.149 19.8385 11.9333 18.6196C11.8955 18.4061 11.8689 18.1904 11.8252 17.9781C11.6709 17.2284 11.3189 16.5809 10.799 16.0221C10.7785 16 10.764 15.9723 10.7324 15.9265C10.8378 15.8346 10.9386 15.7425 11.044 15.6558C11.6651 15.1452 12.0023 14.4703 11.9868 13.6851C11.9616 12.4129 11.1412 11.4054 9.85892 11.1545C9.18838 11.0232 8.568 11.1584 8.01747 11.5412C7.76205 11.7188 7.5552 11.6015 7.34255 11.5291C6.14047 11.1196 5.0384 10.5209 4.04021 9.73408C3.88177 9.60919 3.72024 9.48646 3.57587 9.3465C3.53063 9.30265 3.49857 9.18408 3.52545 9.13618C3.89463 8.47848 4.31809 7.85991 4.81901 7.29136C5.37464 6.66072 6.01229 6.13564 6.73477 5.71507C7.50026 5.26947 8.32063 4.95938 9.19976 4.83103C9.65972 4.76387 10.126 4.68995 10.588 4.69849C11.3086 4.71182 12.0269 4.78694 12.7255 4.99969C13.8829 5.35213 14.9054 5.92026 15.7894 6.75732C17.0054 7.90886 17.7566 9.29991 18.0424 10.9431C18.1033 11.2932 18.1343 11.6528 18.1364 12.0082C18.1459 13.6872 18.1362 15.3663 18.1424 17.0453C18.1457 17.937 18.2293 18.8277 18.6255 19.6357C18.9732 20.3448 19.3999 21.0162 19.8116 21.6922C19.9232 21.8753 19.9231 21.9813 19.7639 22.1249C19.3783 22.4728 19.0338 22.872 18.6229 23.1851C18.0597 23.6143 17.3957 23.8432 16.6946 23.9548C16.6453 23.9627 16.5992 23.9915 16.5492 24.0287C15.9053 24.0469 15.2637 24.0469 14.6001 24.0469Z" fill="#344054"/>
<path d="M13.7124 0.046875C13.8553 0.092614 13.9727 0.160456 14.0977 0.180754C15.7839 0.454395 17.2874 1.14426 18.6433 2.1691C19.9051 3.12289 20.8848 4.31697 21.5869 5.72998C22.1259 6.81499 22.4856 7.96079 22.5946 9.17446C22.6363 9.63831 22.694 10.1051 22.68 10.5687C22.649 11.5967 22.4838 12.6078 22.1643 13.5885C22.1438 13.6514 22.0357 13.726 21.9675 13.7269C21.2099 13.7368 20.4522 13.7303 19.6946 13.7357C19.5343 13.7369 19.4957 13.6648 19.4984 13.5223C19.5041 13.2178 19.4871 12.9125 19.5017 12.6086C19.564 11.3141 19.3408 10.0696 18.8427 8.83874C19.1502 8.74909 19.4418 8.65208 19.7395 8.58154C19.9358 8.53506 19.9932 8.46078 19.923 8.2591C19.8061 7.92335 19.7174 7.5778 19.6083 7.2075C19.2731 7.30345 18.955 7.39439 18.637 7.48561C18.5698 7.50489 18.5002 7.5189 18.4363 7.54622C18.2683 7.61804 18.1929 7.54809 18.0832 7.40705C17.669 6.87452 17.2318 6.35927 16.788 5.85077C16.6655 5.71034 16.6217 5.62787 16.7593 5.46449C17.0286 5.14487 17.2685 4.80049 17.5406 4.43991C17.1936 4.17121 16.8536 3.90795 16.4849 3.62251C16.2026 3.98295 15.924 4.32315 15.6649 4.67766C15.5707 4.80658 15.5075 4.8053 15.383 4.72638C14.7302 4.31274 14.0334 3.98871 13.2969 3.75624C13.1222 3.7011 13.0676 3.61434 13.0749 3.43924C13.0872 3.14295 13.0728 2.84564 13.0794 2.54898C13.0827 2.39873 13.0264 2.33923 12.8746 2.34252C12.5623 2.3493 12.2496 2.34992 11.9373 2.342C11.7781 2.33796 11.7114 2.39241 11.717 2.55746C11.7261 2.82849 11.7194 3.10004 11.7194 3.40038C11.4099 3.37478 11.1336 3.33089 10.8576 3.33267C9.53357 3.34121 8.24051 3.52539 7.01728 4.06497C6.90176 4.11593 6.81688 4.13842 6.75503 3.99776C6.50787 3.43564 6.25447 2.87622 6.01399 2.31129C5.99403 2.2644 6.03338 2.1568 6.07901 2.12271C6.87361 1.52902 7.73026 1.04622 8.6617 0.699375C9.38431 0.430288 10.1251 0.23449 10.89 0.131563C10.9162 0.128031 10.9392 0.100088 10.9662 0.0651989C11.876 0.0468751 12.7832 0.0468751 13.7124 0.046875Z" fill="#344054"/>
<path d="M2.08447 24.0468C2.06256 23.6719 2.0754 23.2964 2.05797 22.9223C2.04712 22.6895 2.13413 22.6281 2.354 22.6364C2.75178 22.6515 3.15082 22.6318 3.54881 22.6439C3.74674 22.65 3.80269 22.5757 3.80001 22.386C3.79108 21.7534 3.80729 21.1205 3.79378 20.4881C3.78162 19.9187 4.02464 19.4641 4.39768 19.0689C4.63781 18.8146 4.89864 18.5782 5.16383 18.3496C5.31813 18.2166 5.36309 18.0633 5.34315 17.8737C5.26253 17.1073 5.00542 16.4189 4.42389 15.8891C3.90311 15.4147 3.27409 15.1562 2.58367 15.0507C2.33895 15.0133 2.08722 14.9946 1.84046 15.0059C1.62273 15.0159 1.56929 14.8978 1.5532 14.7314C1.53003 14.4917 1.51745 14.2509 1.50377 14.0104C1.4852 13.6842 1.46974 13.3578 1.45317 13.0315C1.43738 12.7209 1.3903 12.4079 1.41243 12.1C1.46857 11.3188 1.55593 10.5399 1.63039 9.75999C1.63991 9.66033 1.64702 9.56044 1.66221 9.37622C3.17642 10.9647 4.89294 12.1422 6.92951 12.8168C6.90024 13.1336 6.84958 13.4389 6.84774 13.7445C6.84042 14.959 7.81526 16.0619 9.02651 16.2174C9.24979 16.2461 9.33587 16.3291 9.33406 16.5717C9.32229 18.1494 9.34651 19.7276 9.32051 21.305C9.30668 22.1437 8.9258 22.8223 8.24606 23.3313C7.80573 23.661 7.30402 23.831 6.7793 23.955C6.73754 23.9649 6.69987 23.992 6.65827 24.029C5.13965 24.0468 3.62304 24.0468 2.08447 24.0468Z" fill="#344054"/>
<path d="M8.20352 13.6039C8.26135 12.9807 8.73631 12.496 9.29472 12.4696C9.94408 12.4389 10.4776 12.8291 10.5935 13.4054C10.6952 13.9108 10.5555 14.3378 10.1556 14.648C9.78026 14.9392 9.34259 14.9993 8.90684 14.7845C8.43485 14.5518 8.17861 14.1686 8.20352 13.6039Z" fill="#344054"/>
</g>
<defs>
<clipPath id="clip0_131_7100">
<rect width="24" height="24" fill="white"/>
</clipPath>
</defs>
</svg>
