<svg width="19" height="15" viewBox="0 0 19 15" fill="none" xmlns="http://www.w3.org/2000/svg">
<path d="M0.75 3.25L7.5541 8.01287C8.10507 8.39855 8.38056 8.59139 8.68022 8.66609C8.94491 8.73207 9.22175 8.73207 9.48645 8.66609C9.7861 8.59139 10.0616 8.39855 10.6126 8.01287L17.4167 3.25M4.75 14.0833H13.4167C14.8168 14.0833 15.5169 14.0833 16.0516 13.8108C16.522 13.5712 16.9045 13.1887 17.1442 12.7183C17.4167 12.1835 17.4167 11.4835 17.4167 10.0833V4.75C17.4167 3.34987 17.4167 2.6498 17.1442 2.11502C16.9045 1.64462 16.522 1.26217 16.0516 1.02248C15.5169 0.75 14.8168 0.75 13.4167 0.75H4.75C3.34987 0.75 2.6498 0.75 2.11502 1.02248C1.64462 1.26217 1.26217 1.64462 1.02248 2.11502C0.75 2.6498 0.75 3.34987 0.75 4.75V10.0833C0.75 11.4835 0.75 12.1835 1.02248 12.7183C1.26217 13.1887 1.64462 13.5712 2.11502 13.8108C2.6498 14.0833 3.34987 14.0833 4.75 14.0833Z" stroke="#667085" stroke-width="1.5" stroke-linecap="round" stroke-linejoin="round"/>
</svg>
