<svg width="17" height="33" viewBox="0 0 17 33" fill="none" xmlns="http://www.w3.org/2000/svg">
<path d="M6.50024 22.5C6.16691 21.3333 6.40024 18.8 10.0002 18C10.0003 19.3333 9.30044 22.1 6.50024 22.5Z" fill="#9865FB"/>
<path d="M6.1053 17.3546C6.1078 16.1413 7.033 13.7714 10.7138 13.9988C10.3449 15.2801 8.90684 17.7451 6.1053 17.3546Z" fill="#AC82FF"/>
<path d="M5.09194 12.8254C5.45187 11.6667 7.03433 9.67467 10.4847 10.9766C9.75465 12.0923 7.65403 14.024 5.09194 12.8254Z" fill="#BA9AF8"/>
<path d="M8.08104 7.40778C8.61759 6.3195 10.4918 4.5992 13.6964 6.42418C12.801 7.41213 10.4244 8.99199 8.08104 7.40778Z" fill="#B79AF0"/>
<path d="M10.1083 4.4653C9.95425 3.26177 10.5659 0.792347 14.2453 0.542888C14.0449 1.86107 12.9368 4.491 10.1083 4.4653Z" fill="#C4A6FF"/>
<path d="M5.50003 23.5013C4.33327 23.8343 1.8 23.6002 1.00105 20C2.33438 20.0003 5.10084 20.701 5.50003 23.5013Z" fill="#9865FB"/>
<path d="M4.07654 18.1396C2.88367 17.9176 0.720316 16.5789 1.60989 13C2.8033 13.5946 4.96741 15.4549 4.07654 18.1396Z" fill="#AC82FF"/>
<path d="M4.63449 11.2758C3.50215 10.8777 1.5907 9.24062 3.00366 5.87725C4.07996 6.63967 5.91294 8.78677 4.63449 11.2758Z" fill="#BA9AF8"/>
<path d="M5.95198 6.12842C4.99103 5.59337 3.51847 3.81862 5.31585 1.00004C6.16972 1.85542 7.49237 4.07864 5.95198 6.12842Z" fill="#B79AF0"/>
<path d="M11.5002 26.5C10.6669 25.3333 9.70022 22.6 12.5002 21C13.167 22.1667 13.9004 24.9 11.5002 26.5Z" fill="#8D61E3"/>
<path d="M9.91911 27.5457C8.64241 28.1981 5.7965 28.7516 4.62642 25.7464C5.87857 25.2588 8.69013 24.936 9.91911 27.5457Z" fill="#8D61E3"/>
<path d="M16 30C15 29 13.6 26.4 16 24C16.6666 25 17.5999 27.6 16 30Z" fill="#743DDF"/>
<path d="M14.0252 31.0029C13.0055 31.9827 10.3781 33.3306 8.02643 30.8832C9.03952 30.2366 11.6576 29.3554 14.0252 31.0029Z" fill="#743DDF"/>
</svg>
