<svg width="17" height="33" viewBox="0 0 17 33" fill="none" xmlns="http://www.w3.org/2000/svg">
<path d="M10.3832 22.5C10.7165 21.3333 10.4832 18.8 6.88315 18C6.88307 19.3333 7.58296 22.1 10.3832 22.5Z" fill="#60A5E9"/>
<path d="M10.7781 17.3546C10.7756 16.1413 9.8504 13.7714 6.1696 13.9988C6.53845 15.2801 7.97656 17.7451 10.7781 17.3546Z" fill="#67AAED"/>
<path d="M11.7915 12.8254C11.4315 11.6667 9.84906 9.67467 6.3987 10.9766C7.12875 12.0923 9.22936 14.024 11.7915 12.8254Z" fill="#6CAEF1"/>
<path d="M8.80235 7.40778C8.26581 6.3195 6.39157 4.5992 3.18697 6.42418C4.08236 7.41213 6.45898 8.99199 8.80235 7.40778Z" fill="#71B3F5"/>
<path d="M6.77507 4.4653C6.92914 3.26177 6.31745 0.792347 2.63808 0.542888C2.83853 1.86107 3.94657 4.491 6.77507 4.4653Z" fill="#78B9F9"/>
<path d="M11.3834 23.5013C12.5501 23.8343 15.0834 23.6002 15.8824 20C14.549 20.0003 11.7826 20.701 11.3834 23.5013Z" fill="#60A5E9"/>
<path d="M12.8069 18.1396C13.9997 17.9176 16.1631 16.5789 15.2735 13C14.0801 13.5946 11.916 15.4549 12.8069 18.1396Z" fill="#67AAED"/>
<path d="M12.2489 11.2758C13.3813 10.8777 15.2927 9.24062 13.8797 5.87725C12.8034 6.63967 10.9705 8.78677 12.2489 11.2758Z" fill="#6CAEF1"/>
<path d="M10.9314 6.12842C11.8924 5.59337 13.3649 3.81862 11.5676 1.00004C10.7137 1.85542 9.39102 4.07864 10.9314 6.12842Z" fill="#71B3F5"/>
<path d="M5.38317 26.5C6.21651 25.3333 7.18317 22.6 4.38317 21C3.71643 22.1667 2.983 24.9 5.38317 26.5Z" fill="#5AA0E5"/>
<path d="M6.96429 27.5457C8.24099 28.1981 11.0869 28.7516 12.257 25.7464C11.0048 25.2588 8.19327 24.936 6.96429 27.5457Z" fill="#5AA0E5"/>
<path d="M0.883429 30C1.88343 29 3.28343 26.4 0.883429 24C0.216773 25 -0.716546 27.6 0.883429 30Z" fill="#5198DF"/>
<path d="M2.85816 31.0029C3.87791 31.9827 6.50531 33.3306 8.85697 30.8832C7.84388 30.2366 5.22578 29.3554 2.85816 31.0029Z" fill="#5198DF"/>
</svg>
