<svg width="17" height="17" viewBox="0 0 17 17" fill="none" xmlns="http://www.w3.org/2000/svg">
<path d="M12.4167 5.74995C12.4167 5.32343 12.2539 4.89691 11.9285 4.57149C11.6031 4.24605 11.1765 4.08333 10.75 4.08333M10.75 10.75C13.5114 10.75 15.75 8.51142 15.75 5.75C15.75 2.98858 13.5114 0.75 10.75 0.75C7.98858 0.75 5.75 2.98858 5.75 5.75C5.75 5.97807 5.76527 6.20256 5.79484 6.42253C5.84348 6.78432 5.8678 6.96521 5.85143 7.07966C5.83438 7.19888 5.81267 7.26312 5.75391 7.36825C5.6975 7.46917 5.59809 7.56857 5.39928 7.76739L1.14052 12.0261C0.996398 12.1703 0.924335 12.2423 0.8728 12.3264C0.827109 12.401 0.793439 12.4823 0.773025 12.5673C0.75 12.6632 0.75 12.7651 0.75 12.969V14.4167C0.75 14.8834 0.75 15.1167 0.840828 15.295C0.920722 15.4518 1.04821 15.5793 1.20501 15.6592C1.38327 15.75 1.61662 15.75 2.08333 15.75H4.08333V14.0833H5.75V12.4167H7.41667L8.73261 11.1007C8.93143 10.9019 9.03083 10.8025 9.13175 10.7461C9.23688 10.6873 9.30112 10.6656 9.42034 10.6486C9.53479 10.6322 9.71568 10.6565 10.0775 10.7052C10.2974 10.7347 10.5219 10.75 10.75 10.75Z" stroke="#667085" stroke-width="1.5" stroke-linecap="round" stroke-linejoin="round"/>
</svg>
