<svg width="17" height="33" viewBox="0 0 17 33" fill="none" xmlns="http://www.w3.org/2000/svg">
<path d="M10.3832 22.5C10.7165 21.3333 10.4832 18.8 6.88318 18C6.8831 19.3333 7.58298 22.1 10.3832 22.5Z" fill="#9865FB"/>
<path d="M10.7781 17.3546C10.7756 16.1413 9.85042 13.7714 6.16962 13.9988C6.53848 15.2801 7.97658 17.7451 10.7781 17.3546Z" fill="#AC82FF"/>
<path d="M11.7915 12.8254C11.4315 11.6667 9.84909 9.67467 6.39872 10.9766C7.12877 12.0923 9.22939 14.024 11.7915 12.8254Z" fill="#BA9AF8"/>
<path d="M8.80238 7.40778C8.26583 6.3195 6.39159 4.5992 3.18699 6.42418C4.08239 7.41213 6.45901 8.99199 8.80238 7.40778Z" fill="#B79AF0"/>
<path d="M6.7751 4.4653C6.92917 3.26177 6.31748 0.792347 2.6381 0.542888C2.83856 1.86107 3.94659 4.491 6.7751 4.4653Z" fill="#C4A6FF"/>
<path d="M11.3834 23.5013C12.5502 23.8343 15.0834 23.6002 15.8824 20C14.549 20.0003 11.7826 20.701 11.3834 23.5013Z" fill="#9865FB"/>
<path d="M12.8069 18.1396C13.9998 17.9176 16.1631 16.5789 15.2735 13C14.0801 13.5946 11.916 15.4549 12.8069 18.1396Z" fill="#AC82FF"/>
<path d="M12.2489 11.2758C13.3813 10.8777 15.2927 9.24062 13.8798 5.87725C12.8035 6.63967 10.9705 8.78677 12.2489 11.2758Z" fill="#BA9AF8"/>
<path d="M10.9314 6.12842C11.8924 5.59337 13.365 3.81862 11.5676 1.00004C10.7137 1.85542 9.39105 4.07864 10.9314 6.12842Z" fill="#B79AF0"/>
<path d="M5.3832 26.5C6.21653 25.3333 7.1832 22.6 4.3832 21C3.71646 22.1667 2.98302 24.9 5.3832 26.5Z" fill="#8D61E3"/>
<path d="M6.96432 27.5457C8.24101 28.1981 11.0869 28.7516 12.257 25.7464C11.0049 25.2588 8.1933 24.936 6.96432 27.5457Z" fill="#8D61E3"/>
<path d="M0.883454 30C1.88345 29 3.28345 26.4 0.883454 24C0.216798 25 -0.716521 27.6 0.883454 30Z" fill="#743DDF"/>
<path d="M2.85819 31.0029C3.87793 31.9827 6.50533 33.3306 8.857 30.8832C7.8439 30.2366 5.22581 29.3554 2.85819 31.0029Z" fill="#743DDF"/>
</svg>
