<svg width="15" height="17" viewBox="0 0 15 17" fill="none" xmlns="http://www.w3.org/2000/svg">
<path d="M14.0833 15.75C14.0833 14.587 14.0833 14.0055 13.9398 13.5324C13.6166 12.467 12.783 11.6334 11.7176 11.3102C11.2445 11.1667 10.663 11.1667 9.5 11.1667H5.33334C4.17036 11.1667 3.58888 11.1667 3.11572 11.3102C2.05038 11.6334 1.2167 12.467 0.893533 13.5324C0.75 14.0055 0.75 14.587 0.75 15.75M11.1667 4.5C11.1667 6.57107 9.48773 8.25 7.41667 8.25C5.3456 8.25 3.66667 6.57107 3.66667 4.5C3.66667 2.42893 5.3456 0.75 7.41667 0.75C9.48773 0.75 11.1667 2.42893 11.1667 4.5Z" stroke="#667085" stroke-width="1.5" stroke-linecap="round" stroke-linejoin="round"/>
</svg>
