<svg width="18" height="14" viewBox="0 0 18 14" fill="none" xmlns="http://www.w3.org/2000/svg">
<path d="M0.969894 7.17765C0.856405 6.99795 0.79966 6.9081 0.767895 6.76951C0.744035 6.66542 0.744035 6.50125 0.767895 6.39715C0.79966 6.25857 0.856405 6.16872 0.969893 5.98902C1.90773 4.50403 4.69929 0.75 8.95346 0.75C13.2076 0.75 15.9992 4.50403 16.937 5.98902C17.0505 6.16872 17.1073 6.25857 17.139 6.39715C17.1629 6.50125 17.1629 6.66542 17.139 6.76951C17.1073 6.9081 17.0505 6.99795 16.937 7.17765C15.9992 8.66263 13.2076 12.4167 8.95346 12.4167C4.69929 12.4167 1.90773 8.66263 0.969894 7.17765Z" stroke="#667085" stroke-width="1.5" stroke-linecap="round" stroke-linejoin="round"/>
<path d="M8.95346 9.08333C10.3342 9.08333 11.4535 7.96405 11.4535 6.58333C11.4535 5.20262 10.3342 4.08333 8.95346 4.08333C7.57275 4.08333 6.45346 5.20262 6.45346 6.58333C6.45346 7.96405 7.57275 9.08333 8.95346 9.08333Z" stroke="#667085" stroke-width="1.5" stroke-linecap="round" stroke-linejoin="round"/>
</svg>
