<svg width="24" height="24" viewBox="0 0 24 24" fill="none" xmlns="http://www.w3.org/2000/svg">
<g clip-path="url(#clip0_131_7046)">
<path d="M24.0469 20.8374C23.3936 20.7276 22.7421 20.5863 22.0864 20.468C21.7437 20.4061 21.3946 20.3702 21.0468 20.3476C19.849 20.2698 18.659 20.3278 17.4711 20.5189C16.4153 20.6888 15.3963 20.9763 14.3967 21.3457C14.3566 21.3605 14.3106 21.3595 14.2365 21.3219C14.3699 21.1878 14.4963 21.0457 14.6378 20.9207C15.516 20.1447 16.4772 19.4921 17.5438 19.0022C18.5374 18.5459 19.5721 18.2212 20.6609 18.0944C21.2078 18.0307 21.7582 17.9965 22.3073 17.953C22.5731 17.9319 22.7926 17.697 22.8242 17.3806C22.8335 17.2878 22.828 17.1934 22.828 17.0997C22.8281 13.4451 22.828 9.79062 22.8288 6.13609C22.8288 6.02221 22.8389 5.90832 22.8464 5.74875C23.2571 5.86995 23.6337 5.9811 24.0286 6.09299C24.0469 11.001 24.0469 15.9082 24.0469 20.8374Z" fill="#344054"/>
<path d="M0.046875 6.06883C0.271903 5.99099 0.49693 5.93512 0.745899 5.8873C1.12785 5.98801 1.07982 6.27016 1.07964 6.53971C1.07735 10.0027 1.07809 13.4657 1.07833 16.9287C1.07834 17.0378 1.05365 17.1574 1.08982 17.2535C1.13433 17.3718 1.23071 17.4706 1.30467 17.5779C1.30467 17.5779 1.31132 17.6 1.31209 17.623C1.34581 17.6852 1.37877 17.7244 1.41172 17.7637C1.46817 17.8022 1.52461 17.8408 1.58686 17.9043C1.66051 18.1177 1.70859 18.1231 1.87475 17.9609C1.9706 17.9594 2.06645 17.9579 2.18824 17.9726C2.31652 18.1646 2.4232 18.1407 2.53251 17.9959C2.89391 18.0294 3.25531 18.0629 3.63972 18.1078C3.69214 18.1259 3.72155 18.1327 3.75096 18.1395C3.82104 18.146 3.89113 18.1524 3.97193 18.1839C4.054 18.3999 4.28642 18.4395 4.4528 18.2891C4.5083 18.2924 4.56381 18.2957 4.63526 18.3223C4.69515 18.3535 4.73908 18.3614 4.78302 18.3693C4.86455 18.3866 4.94608 18.4039 5.04803 18.4396C5.10426 18.5644 5.13807 18.6779 5.25168 18.5099C5.47906 18.5791 5.70643 18.6483 5.95033 18.7448C6.05339 18.9108 6.1245 19.0935 6.32774 18.8984C6.44642 18.9484 6.56511 18.9985 6.69632 19.0779C6.79097 19.3882 6.8801 19.425 7.08034 19.2606C7.21418 19.3308 7.34802 19.401 7.49096 19.4945C7.54849 19.5423 7.59693 19.5667 7.64537 19.5912C7.72839 19.6358 7.81141 19.6804 7.90866 19.7505C7.9581 20.0408 7.97943 20.0535 8.15855 19.9168C8.24674 19.9705 8.33493 20.0241 8.42881 20.1064C8.44496 20.4075 8.56417 20.5055 8.86805 20.4919C8.91862 20.5084 8.96052 20.5173 9.00242 20.5263C9.26256 20.7516 9.52269 20.9769 9.79021 21.2334C9.79659 21.2885 9.7956 21.3124 9.79461 21.3363C9.27456 21.1647 8.7545 20.9931 8.22028 20.8C8.13383 20.523 7.99009 20.7029 7.87251 20.7236C7.82316 20.7213 7.7738 20.7191 7.70402 20.6985C7.59921 20.464 7.56021 20.4552 7.40641 20.6172C7.33858 20.607 7.27075 20.5969 7.18387 20.5637C7.10093 20.3799 7.02514 20.3751 6.93765 20.5234C6.82509 20.5098 6.71253 20.4962 6.57826 20.4628C6.48064 20.3813 6.40637 20.2736 6.32834 20.2708C6.25214 20.2681 6.17209 20.3724 6.09373 20.4297C6.05652 20.4165 6.01932 20.4032 5.9648 20.3728C5.92195 20.3229 5.8964 20.2903 5.87085 20.2576C5.83578 20.2994 5.80071 20.3411 5.76564 20.3828C5.69875 20.37 5.63187 20.3572 5.54383 20.3244C5.3744 20.1044 5.25944 20.1131 5.1096 20.3359C4.99719 20.3219 4.88477 20.3079 4.74677 20.2785C4.61463 20.0935 4.527 20.1192 4.45335 20.289C4.38814 20.2905 4.32292 20.2921 4.23531 20.2746C4.13716 20.195 4.0682 20.0975 3.98413 20.082C3.84448 20.0563 3.72935 20.1281 3.7031 20.2891C3.52913 20.3062 3.35516 20.3233 3.15266 20.3262C2.91458 20.1901 2.59063 20.2235 2.43754 20.3828C2.38578 20.3988 2.33402 20.4149 2.26008 20.4249C2.21078 20.4226 2.18368 20.4261 2.15658 20.4297C2.10714 20.4329 2.05771 20.4361 1.97813 20.4313C1.79226 20.3233 1.68293 20.3873 1.594 20.5234C1.54441 20.5267 1.49481 20.5301 1.4163 20.5247C1.22718 20.4034 1.1282 20.5061 1.03159 20.6171C0.715844 20.6974 0.400095 20.7777 0.0656104 20.8586C0.046875 15.9365 0.046875 11.0137 0.046875 6.06883Z" fill="#344054"/>
<path d="M13.184 6.99737C13.548 6.60101 13.8848 6.20084 14.2566 5.83628C14.953 5.15328 15.7414 4.58964 16.5872 4.10219C17.7302 3.44347 18.9506 2.99658 20.2424 2.74791C20.7264 2.65475 21.2195 2.60887 21.75 2.53571C21.75 2.69012 21.75 2.78102 21.75 2.87193C21.75 7.45699 21.75 12.0421 21.7499 16.6271C21.7498 16.966 21.743 16.9258 21.4049 16.9768C20.5781 17.1014 19.7453 17.2196 18.9369 17.4265C17.5772 17.7746 16.3361 18.4035 15.1791 19.197C14.2885 19.8078 13.5001 20.5317 12.7958 21.349C12.7468 21.4057 12.6843 21.4508 12.5855 21.5395C12.5751 21.4074 12.5634 21.327 12.5634 21.2466C12.5625 16.8568 12.5646 12.467 12.559 8.07723C12.5585 7.69539 12.8544 7.49498 13.0169 7.21279C13.0592 7.1395 13.1202 7.07707 13.184 6.99737Z" fill="#344054"/>
<path d="M2.34387 16.6792C2.35428 11.9741 2.31962 7.2912 2.36769 2.55121C2.78621 2.5983 3.15561 2.62162 3.51831 2.68395C4.79772 2.90383 6.0211 3.29893 7.16758 3.91343C7.97077 4.34392 8.72428 4.84694 9.41463 5.44745C10.1707 6.10512 10.8394 6.83894 11.418 7.65404C11.4955 7.76316 11.5264 7.9273 11.5266 8.06605C11.5325 11.3932 11.5312 14.7204 11.5312 18.0476C11.5312 19.0942 11.5312 20.1408 11.5312 21.1874C11.5312 21.279 11.5312 21.3707 11.5312 21.4623C11.5112 21.4743 11.4913 21.4864 11.4713 21.4984C11.3523 21.3726 11.228 21.2514 11.115 21.1204C10.2161 20.0785 9.13704 19.2606 7.95094 18.577C6.92051 17.9832 5.82559 17.5405 4.66403 17.2917C3.96874 17.1427 3.25807 17.059 2.55075 16.9766C2.33519 16.9515 2.33902 16.8482 2.34387 16.6792Z" fill="#344054"/>
<path d="M1.30433 17.5583C1.2307 17.4707 1.13433 17.3719 1.08981 17.2535C1.05364 17.1574 1.07833 17.0378 1.07832 16.9287C1.07808 13.4657 1.07734 10.0027 1.07963 6.53974C1.07981 6.27019 1.12784 5.98804 0.762695 5.88302C0.833043 5.8515 0.910529 5.83232 1.01451 5.80533C1.05313 5.78871 1.06504 5.77963 1.07672 5.77026C1.13037 5.77026 1.18401 5.77026 1.26562 5.77026C1.26562 5.88893 1.26562 5.99637 1.26562 6.10381C1.26563 9.78469 1.26524 13.4656 1.26726 17.1464C1.26733 17.2772 1.29121 17.408 1.30433 17.5583Z" fill="#344054"/>
<path d="M3.72449 20.2914C3.72936 20.1282 3.84449 20.0563 3.98414 20.0821C4.06821 20.0976 4.13717 20.1951 4.21585 20.2724C4.06114 20.2906 3.9035 20.2922 3.72449 20.2914Z" fill="#344054"/>
<path d="M8.85936 20.4844C8.56416 20.5055 8.44495 20.4075 8.43704 20.1196C8.45121 20.1077 8.46283 20.1112 8.4927 20.1231C8.51094 20.1315 8.51794 20.1331 8.51794 20.1331C8.62702 20.2238 8.7361 20.3145 8.85277 20.4317C8.86002 20.467 8.85969 20.4757 8.85936 20.4844Z" fill="#344054"/>
<path d="M6.11383 20.432C6.17209 20.3724 6.25214 20.2681 6.32835 20.2709C6.40638 20.2737 6.48064 20.3813 6.55954 20.4598C6.41966 20.4625 6.2768 20.4484 6.11383 20.432Z" fill="#344054"/>
<path d="M2.45837 20.3851C2.59065 20.2236 2.9146 20.1902 3.13222 20.324C2.91993 20.3531 2.69957 20.3703 2.45837 20.3851Z" fill="#344054"/>
<path d="M4.43688 18.2805C4.28641 18.4395 4.05399 18.3999 3.9848 18.1959C4.13163 18.2125 4.2763 18.2422 4.43688 18.2805Z" fill="#344054"/>
<path d="M7.06989 19.2486C6.88011 19.425 6.79098 19.3882 6.70697 19.09C6.8232 19.1273 6.94132 19.1819 7.06989 19.2486Z" fill="#344054"/>
<path d="M5.13058 20.3382C5.25944 20.1131 5.3744 20.1044 5.52697 20.3202C5.4047 20.3375 5.27813 20.339 5.13058 20.3382Z" fill="#344054"/>
<path d="M6.31312 18.8902C6.12449 19.0935 6.05338 18.9108 5.96219 18.7571C6.07119 18.7887 6.18485 18.8353 6.31312 18.8902Z" fill="#344054"/>
<path d="M2.51817 17.9842C2.4232 18.1407 2.31652 18.1646 2.20868 17.975C2.30339 17.9648 2.40361 17.9686 2.51817 17.9842Z" fill="#344054"/>
<path d="M7.42114 20.6253C7.56023 20.4552 7.59923 20.464 7.68556 20.6971C7.60363 20.6871 7.51975 20.6602 7.42114 20.6253Z" fill="#344054"/>
<path d="M8.15066 19.904C7.97941 20.0535 7.95809 20.0408 7.92236 19.7585C7.9955 19.7911 8.06914 19.8411 8.15066 19.904Z" fill="#344054"/>
<path d="M1.85705 17.9584C1.70859 18.1231 1.66051 18.1177 1.59583 17.9161C1.67911 17.9206 1.75923 17.9382 1.85705 17.9584Z" fill="#344054"/>
<path d="M7.88495 20.7355C7.99009 20.703 8.13384 20.523 8.2048 20.7915C8.10146 20.7856 7.99942 20.7665 7.88495 20.7355Z" fill="#344054"/>
<path d="M1.04971 20.6187C1.12821 20.5061 1.22718 20.4034 1.39773 20.5264C1.29467 20.5647 1.18125 20.5925 1.04971 20.6187Z" fill="#344054"/>
<path d="M1.61203 20.5236C1.68294 20.3873 1.79226 20.3233 1.95961 20.4328C1.8575 20.4696 1.74378 20.4967 1.61203 20.5236Z" fill="#344054"/>
<path d="M4.47333 20.2914C4.52702 20.1192 4.61464 20.0935 4.72763 20.2761C4.6538 20.2906 4.57354 20.2921 4.47333 20.2914Z" fill="#344054"/>
<path d="M6.95316 20.5317C7.02515 20.3751 7.10095 20.3799 7.16837 20.5555C7.10415 20.5602 7.0364 20.55 6.95316 20.5317Z" fill="#344054"/>
<path d="M5.7843 20.385C5.80069 20.3411 5.83576 20.2994 5.87083 20.2577C5.89638 20.2903 5.92193 20.3229 5.95031 20.3692C5.90308 20.3843 5.85303 20.3858 5.7843 20.385Z" fill="#344054"/>
<path d="M5.24162 18.4988C5.13807 18.6779 5.10426 18.5644 5.06552 18.4438C5.1189 18.449 5.17523 18.4684 5.24162 18.4988Z" fill="#344054"/>
<path d="M7.6376 19.5783C7.59695 19.5668 7.54851 19.5423 7.50134 19.5066C7.54501 19.5187 7.58741 19.5421 7.6376 19.5783Z" fill="#344054"/>
<path d="M4.77255 18.3582C4.73907 18.3614 4.69514 18.3535 4.64734 18.3341C4.68302 18.3307 4.72255 18.3389 4.77255 18.3582Z" fill="#344054"/>
<path d="M1.40502 17.751C1.37878 17.7245 1.34582 17.6852 1.31494 17.6342C1.34411 17.661 1.37121 17.6996 1.40502 17.751Z" fill="#344054"/>
<path d="M8.86806 20.4919C8.85972 20.4757 8.86005 20.4669 8.86087 20.4452C8.90328 20.4551 8.94519 20.4781 8.99477 20.5137C8.96054 20.5173 8.91864 20.5084 8.86806 20.4919Z" fill="#344054"/>
<path d="M3.74172 18.13C3.72156 18.1328 3.69215 18.126 3.65952 18.1104C3.68169 18.1079 3.70709 18.1141 3.74172 18.13Z" fill="#344054"/>
<path d="M9.80365 21.3457C9.79559 21.3124 9.79658 21.2885 9.79832 21.2466C9.80361 21.2708 9.80815 21.313 9.80365 21.3457Z" fill="#344054"/>
<path d="M2.17203 20.4315C2.18367 20.4261 2.21077 20.4226 2.24371 20.4244C2.22886 20.4309 2.20817 20.4321 2.17203 20.4315Z" fill="#344054"/>
<path d="M1.06491 5.77228C1.06504 5.77961 1.05314 5.78869 1.03183 5.80395C1.0328 5.79838 1.04295 5.78635 1.06491 5.77228Z" fill="#344054"/>
<path d="M8.51723 20.1312C8.51795 20.1331 8.51096 20.1315 8.50966 20.1297C8.50836 20.128 8.51651 20.1293 8.51723 20.1312Z" fill="#344054"/>
</g>
<defs>
<clipPath id="clip0_131_7046">
<rect width="24" height="24" fill="white"/>
</clipPath>
</defs>
</svg>
