<svg width="24" height="24" viewBox="0 0 24 24" fill="none" xmlns="http://www.w3.org/2000/svg">
<g clip-path="url(#clip0_131_7128)">
<path d="M6.4709 21.0327C6.45168 20.8832 6.42381 20.753 6.42376 20.6228C6.42158 14.967 6.42417 9.31125 6.41924 3.6555C6.41854 2.85847 6.28389 2.08867 5.77806 1.43426C5.61908 1.22859 5.44095 1.03772 5.24907 0.813787C5.33737 0.807737 5.41622 0.79762 5.49508 0.797606C9.64316 0.796847 13.7912 0.794692 17.9393 0.799848C18.4482 0.800481 18.8926 1.0253 19.2881 1.32097C19.8112 1.71195 20.1247 2.25018 20.2652 2.88739C20.2834 2.96987 20.2953 3.05565 20.2955 3.13994C20.2975 4.19453 20.2908 5.24919 20.3019 6.30367C20.3041 6.51146 20.2531 6.60996 20.0388 6.64672C19.7182 6.70171 19.4032 6.7892 19.0856 6.86192C19.0484 6.87044 19.0094 6.8797 18.972 6.87728C18.5778 6.85181 18.1838 6.80127 17.7897 6.80048C14.6025 6.79408 11.4153 6.79618 8.22806 6.79938C8.09041 6.79952 7.93594 6.80373 7.82031 6.86478C7.72214 6.91661 7.61013 7.05405 7.61124 7.1524C7.61249 7.263 7.70999 7.41091 7.8091 7.47171C7.91838 7.53874 8.07702 7.54393 8.21419 7.54409C11.2295 7.54771 14.2449 7.54688 17.2603 7.5469C17.3515 7.5469 17.4428 7.5469 17.5341 7.5469C16.7844 8.2421 16.117 8.97778 15.7197 9.85673C15.396 9.83462 15.1199 9.79994 14.8436 9.79939C12.6329 9.79493 10.4221 9.79578 8.21138 9.79968C8.07408 9.79992 7.91838 9.80702 7.80526 9.87104C7.70972 9.92512 7.61094 10.0662 7.61042 10.1693C7.60991 10.2724 7.70732 10.4145 7.80231 10.4694C7.9147 10.5344 8.07044 10.5437 8.20744 10.5439C10.5041 10.548 12.8008 10.5469 15.0975 10.5469C15.1972 10.5469 15.2969 10.5469 15.4359 10.5469C15.3755 10.8574 15.293 11.1332 15.2735 11.4134C15.2382 11.9224 15.2385 12.434 15.2278 12.9445C15.2241 13.124 15.2351 13.3037 15.2337 13.4832C15.2304 13.9006 15.2757 14.3075 15.4963 14.674C15.5664 14.7906 15.5373 14.8684 15.4449 14.9566C15.219 15.1723 14.9997 15.3951 14.7812 15.6185C14.5933 15.8105 14.5836 15.9934 14.7458 16.1494C14.9014 16.2993 15.0937 16.2844 15.2799 16.1019C15.4975 15.8886 15.7152 15.6752 15.9251 15.4545C16.0184 15.3564 16.0985 15.3267 16.2263 15.3995C16.5806 15.6012 16.9722 15.6489 17.3731 15.6579C17.684 15.665 17.9968 15.7188 18.3047 15.6961C18.8993 15.6523 19.4911 15.5696 20.084 15.5016C20.1435 15.4947 20.2018 15.4775 20.2931 15.4582C20.2931 15.7923 20.2983 16.1028 20.2873 16.4127C20.2857 16.4576 20.2126 16.5235 20.161 16.5377C20.0808 16.5597 19.9907 16.5467 19.9048 16.5467C17.1238 16.5469 14.3428 16.5469 11.5618 16.5469C11.4837 16.5469 11.4056 16.5466 11.3274 16.547C10.7553 16.55 10.5483 16.7525 10.5475 17.319C10.5458 18.4283 10.5475 19.5375 10.5466 20.6468C10.5461 21.3853 9.9611 22.183 9.25612 22.4209C8.59333 22.6446 7.95485 22.6186 7.35493 22.2376C6.91271 21.9568 6.61936 21.5578 6.4709 21.0327ZM7.61517 4.29911C7.73018 4.51994 7.9371 4.54592 8.15167 4.54604C10.1259 4.54717 12.1001 4.54776 14.0743 4.54394C14.188 4.54372 14.3227 4.53438 14.4094 4.4742C14.5037 4.40877 14.6118 4.27606 14.6069 4.178C14.6014 4.06774 14.498 3.92874 14.3975 3.86619C14.2951 3.80257 14.1444 3.79975 14.0149 3.7995C12.0797 3.7958 10.1445 3.79677 8.20927 3.79751C8.12379 3.79754 8.03584 3.79457 7.95329 3.81252C7.6623 3.87582 7.59428 3.96798 7.61517 4.29911ZM9.02344 13.5469C10.6715 13.5469 12.3195 13.547 13.9676 13.5466C14.0535 13.5466 14.1406 13.5522 14.2249 13.5399C14.4935 13.5006 14.6236 13.3729 14.623 13.1661C14.6221 12.9076 14.4264 12.8578 14.2366 12.8055C14.1852 12.7913 14.1279 12.7974 14.0733 12.7974C12.0972 12.797 10.1211 12.7955 8.14498 12.8007C8.0173 12.8011 7.87291 12.826 7.76756 12.8906C7.68511 12.9411 7.60905 13.0701 7.60744 13.1655C7.60583 13.2609 7.67742 13.393 7.7582 13.4454C7.86153 13.5124 8.00519 13.5362 8.13322 13.5424C8.41375 13.556 8.69538 13.5468 9.02344 13.5469Z" fill="#344054"/>
<path d="M13.4062 17.2969C16.2185 17.2969 19.0074 17.3104 21.7961 17.2859C22.3825 17.2808 22.9604 17.8243 22.9316 18.4177C22.8925 19.2205 22.9388 20.0269 22.9175 20.831C22.8924 21.778 22.4234 22.4784 21.624 22.9594C21.202 23.2133 20.7399 23.3044 20.2399 23.3029C16.4668 23.2918 12.6937 23.2969 8.9206 23.2969C8.82807 23.2969 8.73554 23.2969 8.64301 23.2969C9.18067 23.2176 9.69131 23.074 10.1207 22.7332C10.7824 22.2078 11.223 21.5474 11.2473 20.6759C11.2756 19.6548 11.2821 18.6332 11.2965 17.6117C11.3009 17.2989 11.2985 17.2977 11.6017 17.2972C12.1954 17.2963 12.7891 17.2969 13.4062 17.2969Z" fill="#344054"/>
<path d="M17.1914 13.2069C16.8284 13.5718 16.4772 13.9249 16.072 14.3323C16.018 14.0948 15.9549 13.9227 15.9435 13.7471C15.9138 13.2891 15.8912 12.8296 15.8934 12.3708C15.9008 10.8297 16.4483 9.52205 17.602 8.48101C17.7224 8.37241 17.8119 8.34649 17.9307 8.48153C18.1088 8.68399 18.3005 8.87449 18.5285 9.11424C18.5982 8.74152 18.536 8.46425 18.4178 8.20443C18.3338 8.01957 18.3825 7.91629 18.5489 7.8351C19.1118 7.56031 19.6999 7.34964 20.3264 7.31962C20.9929 7.28769 21.6625 7.29804 22.3299 7.31712C23.0966 7.33903 23.5349 7.79907 23.5768 8.59829C23.5955 8.95553 23.6178 9.31295 23.6224 9.6705C23.6427 11.2549 23.1527 12.633 21.9685 13.7283C21.7984 13.8856 21.665 13.9393 21.4306 13.7839C20.9271 13.4502 20.3548 13.334 19.6887 13.4206C20.0758 13.7774 20.4273 14.1014 20.7789 14.4255C20.7587 14.4578 20.7385 14.4902 20.7183 14.5225C19.4036 15.1567 18.0253 15.0037 16.6487 14.872C16.638 14.8465 16.6274 14.8211 16.6168 14.7957C16.6789 14.7237 16.7367 14.6475 16.8037 14.5804C18.2661 13.1163 19.7296 11.6534 21.1923 10.1896C21.2528 10.1292 21.3172 10.0694 21.3632 9.99851C21.4623 9.84618 21.4264 9.70323 21.3118 9.57182C21.1927 9.43546 21.0515 9.44062 20.9114 9.52043C20.832 9.56563 20.7647 9.63506 20.699 9.70064C19.5331 10.8649 18.3682 12.0302 17.1914 13.2069Z" fill="#344054"/>
<path d="M0.804688 8.06271C0.803147 6.62407 0.801605 5.18543 0.816416 3.7194C1.02376 3.56858 0.988087 3.46524 0.804676 3.375C0.803297 3.33972 0.801918 3.30444 0.817138 3.24585C1.07935 3.06555 1.09466 2.97964 0.898437 2.85948C0.909344 2.82159 0.920252 2.7837 0.954193 2.72908C1.22382 2.59136 1.31988 2.36455 1.21374 2.15391C1.2224 2.12826 1.23106 2.10261 1.26382 2.07138C1.46443 2.08225 1.42783 1.97254 1.4037 1.87022C1.42667 1.82852 1.44965 1.78682 1.49392 1.74554C1.54783 1.75599 1.58045 1.76602 1.61307 1.77604C1.60578 1.72934 1.59849 1.68264 1.5912 1.63594C1.65981 1.5637 1.72842 1.49146 1.82618 1.41451C2.03235 1.42413 2.20691 1.43544 2.15374 1.16693C2.895 0.634478 3.93924 0.686368 4.672 1.27176C5.17839 1.6763 5.51314 2.17881 5.64357 2.81389C5.66373 2.91205 5.67057 3.01451 5.67068 3.11499C5.6723 4.71589 5.65885 6.31696 5.68055 7.91757C5.68628 8.34047 5.31785 8.6888 4.92442 8.68057C3.75354 8.65606 2.58183 8.67215 1.41044 8.67105C1.32508 8.67097 1.23974 8.66018 1.13463 8.63052C1.06978 8.58236 1.0247 8.55806 0.97962 8.53376C0.965588 8.52859 0.954081 8.52003 0.945047 8.48188C0.992685 8.29097 0.969656 8.1515 0.804688 8.06271Z" fill="#344054"/>
<path d="M1.20016 2.1626C1.31988 2.36457 1.22382 2.59138 0.961243 2.71557C1.0257 2.53626 1.10614 2.35376 1.20016 2.1626Z" fill="#344054"/>
<path d="M0.890082 2.87506C1.09466 2.97964 1.07935 3.06555 0.819229 3.22829C0.830394 3.11957 0.856062 3.0051 0.890082 2.87506Z" fill="#344054"/>
<path d="M2.13799 1.17053C2.20692 1.43549 2.03236 1.42419 1.8391 1.407C1.92265 1.32745 2.02244 1.25076 2.13799 1.17053Z" fill="#344054"/>
<path d="M0.802429 8.08185C0.969662 8.15153 0.992691 8.29099 0.939901 8.47233C0.889923 8.35962 0.845044 8.23029 0.802429 8.08185Z" fill="#344054"/>
<path d="M0.802371 3.39545C0.988085 3.46528 1.02375 3.56862 0.818727 3.69757C0.803147 3.60735 0.801608 3.5116 0.802371 3.39545Z" fill="#344054"/>
<path d="M1.39064 1.87811C1.42783 1.97258 1.46443 2.08228 1.27444 2.06286C1.29984 2.00192 1.33871 1.94394 1.39064 1.87811Z" fill="#344054"/>
<path d="M1.57947 1.64258C1.59849 1.68268 1.60578 1.72939 1.61307 1.77609C1.58045 1.76606 1.54783 1.75604 1.50638 1.73784C1.52094 1.70284 1.54434 1.67601 1.57947 1.64258Z" fill="#344054"/>
<path d="M0.987534 8.54657C1.0247 8.5581 1.06978 8.5824 1.11898 8.61855C1.08055 8.60672 1.038 8.58303 0.987534 8.54657Z" fill="#344054"/>
</g>
<defs>
<clipPath id="clip0_131_7128">
<rect width="24" height="24" fill="white"/>
</clipPath>
</defs>
</svg>
