<svg width="23" height="24" viewBox="0 0 23 24" fill="none" xmlns="http://www.w3.org/2000/svg">
<path d="M17.2031 11.0325C16.2344 12.5175 14.6016 13.4175 12.3047 13.7325C12.3203 13.8225 12.3359 14.025 12.3516 14.34C12.3672 14.655 12.4062 14.9475 12.4688 15.2175C12.5469 15.5025 12.6562 15.7725 12.7969 16.0275C13.875 17.9925 14.5781 19.755 14.9062 21.315C15.4531 21.525 16.1484 21.5175 16.9922 21.2925C17.8516 21.0675 18.6719 20.6775 19.4531 20.1225C20.2344 19.5525 20.7812 18.9225 21.0938 18.2325C21.4375 17.4375 21.5781 16.695 21.5156 16.005C21.4531 15.315 21.2188 14.73 20.8125 14.25C20.4062 13.77 19.8984 13.5 19.2891 13.44C18.4297 13.35 17.7578 13.4925 17.2734 13.8675C16.7891 14.2425 16.6016 14.7075 16.7109 15.2625C16.8047 15.7725 17.0703 16.05 17.5078 16.095C17.9609 16.155 18.4609 16.005 19.0078 15.645C19.4609 15.375 19.8594 15.3975 20.2031 15.7125C20.5156 16.0125 20.5547 16.3275 20.3203 16.6575C20.2266 16.7925 20.0859 16.905 19.8984 16.995C19.4453 17.22 19 17.385 18.5625 17.49C18.1094 17.61 17.6328 17.6325 17.1328 17.5575C16.6172 17.4675 16.2031 17.25 15.8906 16.905C15.7188 16.71 15.5781 16.4475 15.4688 16.1175C15.3594 15.7725 15.3047 15.4125 15.3047 15.0375C15.3047 14.6475 15.3828 14.265 15.5391 13.89C15.6953 13.5 15.9141 13.155 16.1953 12.855C16.4922 12.54 16.9062 12.3075 17.4375 12.1575C17.9844 11.9925 18.6016 11.94 19.2891 12C20.1328 12.075 20.8359 12.3375 21.3984 12.7875C21.9766 13.2375 22.375 13.7775 22.5938 14.4075C22.8125 15.0525 22.9375 15.72 22.9688 16.41C23 17.115 22.9375 17.775 22.7812 18.39C22.6094 19.005 22.3828 19.5 22.1016 19.875C21.7109 20.46 21.3203 20.9475 20.9297 21.3375C20.5391 21.7425 20.0391 22.1175 19.4297 22.4625C18.8047 22.8225 18.0469 23.085 17.1562 23.25C16.2656 23.43 15.2109 23.52 13.9922 23.52H6C4.875 23.52 4.70312 22.3425 5.48438 19.9875C5.875 18.8175 6.44531 17.5275 7.19531 16.1175C7.35156 15.8325 7.46094 15.555 7.52344 15.285C7.58594 15.015 7.625 14.73 7.64062 14.43C7.67188 14.115 7.69531 13.9125 7.71094 13.8225C5.30469 13.5075 3.66406 12.615 2.78906 11.145H1.5C1.17188 11.025 1.00781 10.83 1.00781 10.56C1.00781 10.41 1.04688 10.2975 1.125 10.2225C1.21875 10.1325 1.34375 10.0875 1.5 10.0875H2.29688C2.17188 9.69749 2.10938 9.37499 2.10938 9.11999H0.492188C0.351562 9.11999 0.234375 9.07499 0.140625 8.98499C0.046875 8.89499 0 8.78249 0 8.64749C0 8.49749 0.046875 8.37749 0.140625 8.28749C0.234375 8.19749 0.351562 8.15249 0.492188 8.15249H1.99219C1.99219 6.89249 2.32812 5.84249 3 5.00249V1.15499C3 0.914989 3.08594 0.734989 3.25781 0.61499C3.44531 0.494989 3.65625 0.47999 3.89062 0.56999L8.39062 2.50499C8.79688 2.42999 9.32812 2.39249 9.98438 2.39249C10.6562 2.39249 11.1641 2.42999 11.5078 2.50499L16.0078 0.56999C16.2578 0.47999 16.4688 0.47999 16.6406 0.56999C16.8125 0.67499 16.8984 0.869989 16.8984 1.15499V5.00249C17.5703 5.96249 17.9062 7.01249 17.9062 8.15249H19.4062C19.7969 8.15249 19.9922 8.31749 19.9922 8.64749C19.9922 8.78249 19.9531 8.89499 19.875 8.98499C19.7812 9.07499 19.6562 9.11999 19.5 9.11999H17.9062C17.875 9.23999 17.8438 9.40499 17.8125 9.61499C17.7656 9.82499 17.7266 9.98249 17.6953 10.0875H18.4922C18.6484 10.0875 18.7734 10.125 18.8672 10.2C18.9609 10.29 19.0078 10.41 19.0078 10.56C19.0078 10.71 18.9609 10.8225 18.8672 10.8975C18.7734 10.9875 18.6484 11.0325 18.4922 11.0325H17.2031Z" fill="#344054"/>
</svg>
