<svg width="24" height="25" viewBox="0 0 24 25" fill="none" xmlns="http://www.w3.org/2000/svg">
<path d="M10.5 6.99219L9.30469 12.2891C9.39844 12.6016 9.5625 13.0703 9.79688 13.6953C10.0312 14.3359 10.1953 14.8047 10.2891 15.1016C10.7422 16.2578 11.3125 17.5234 12 18.8984C12.4062 18.1016 12.7031 17.4688 12.8906 17C13.25 16.2812 13.5234 15.6172 13.7109 15.0078C13.9766 14.3359 14.1406 13.8672 14.2031 13.6016C14.2656 13.4297 14.3438 13.1953 14.4375 12.8984C14.5469 12.6016 14.6328 12.3672 14.6953 12.1953L13.5 6.89844H10.5V6.99219ZM5.90625 2.21094C4.125 3.22656 2.69531 4.64844 1.61719 6.47656C0.539062 8.32031 0 10.3281 0 12.5C0 15.2656 0.835937 17.7109 2.50781 19.8359C4.17969 21.9609 6.3125 23.3828 8.90625 24.1016L9.39844 23.4922C9.85156 22.9609 10.4531 22 11.2031 20.6094C10.3281 18.9219 9.51562 17.1094 8.76562 15.1719C8 13.2344 7.33594 11.0781 6.77344 8.70312C6.19531 6.3125 5.90625 4.14844 5.90625 2.21094ZM10.5 6.00781H13.5L14.6953 2.89062C14.8047 2.65625 14.8125 2.39062 14.7188 2.09375C14.625 1.78125 14.4531 1.54688 14.2031 1.39062L13.1016 0.5H10.8984L9.79688 1.39062C9.60938 1.54688 9.46875 1.77344 9.375 2.07031C9.28125 2.36719 9.25781 2.64062 9.30469 2.89062L10.5 6.00781ZM18.0938 2.21094C18.1094 3.85156 17.9219 5.64844 17.5312 7.60156C17.1406 9.55469 16.6484 11.3828 16.0547 13.0859C15.4609 14.8047 14.8125 16.4609 14.1094 18.0547C13.3906 19.6641 12.7344 21 12.1406 22.0625C11.5312 23.1406 11.0156 23.9531 10.5938 24.5H12C14.1562 24.5 16.1562 23.9609 18 22.8828C19.8438 21.8047 21.3047 20.3438 22.3828 18.5C23.4609 16.6562 24 14.6562 24 12.5C24 10.3281 23.4609 8.32812 22.3828 6.5C21.3047 4.65625 19.875 3.22656 18.0938 2.21094Z" fill="#344054"/>
</svg>
