<svg width="24" height="25" viewBox="0 0 24 25" fill="none" xmlns="http://www.w3.org/2000/svg">
<path d="M3.25781 17.1406C3.13281 18.1562 3.10156 19.0078 3.16406 19.6953C3.22656 20.3984 3.33594 20.8281 3.49219 20.9844C3.66406 21.1562 4.08594 21.2656 4.75781 21.3125C5.44531 21.375 6.3125 21.3516 7.35938 21.2422C6.71875 20.2578 6.23438 19.375 5.90625 18.5938C5.03125 18.2031 4.14844 17.7188 3.25781 17.1406ZM20.7422 7.85938C20.8672 6.84375 20.8984 5.99219 20.8359 5.30469C20.7734 4.60156 20.6641 4.17188 20.5078 4.01562C20.3359 3.84375 19.9141 3.73438 19.2422 3.6875C18.5547 3.625 17.6875 3.64844 16.6406 3.75781C17.2812 4.74219 17.7656 5.625 18.0938 6.40625C18.9688 6.79688 19.8516 7.28125 20.7422 7.85938ZM7.24219 19.1562C8.02344 20.625 8.91406 21.8828 9.91406 22.9297C10.9141 23.9766 11.6094 24.5 12 24.5C12.2188 24.5 12.6094 24.2656 13.1719 23.7969C13.7344 23.3281 14.3125 22.7266 14.9062 21.9922C12.6875 21.5234 10.7344 20.7578 9.04688 19.6953C8.65625 19.6016 8.05469 19.4219 7.24219 19.1562ZM16.7578 5.84375C15.9766 4.375 15.0859 3.11719 14.0859 2.07031C13.0859 1.02344 12.3906 0.5 12 0.5C11.7812 0.5 11.3906 0.734375 10.8281 1.20312C10.2656 1.67188 9.6875 2.27344 9.09375 3.00781C11.3125 3.47656 13.2656 4.24219 14.9531 5.30469C15.3438 5.39844 15.9453 5.57812 16.7578 5.84375ZM12 5H12.2109C10.9609 4.48438 9.66406 4.11719 8.32031 3.89844C6.96094 3.67969 5.86719 3.59375 5.03906 3.64062C4.19531 3.6875 3.67969 3.80469 3.49219 3.99219C3.33594 4.16406 3.23438 4.58594 3.1875 5.25781C3.125 5.94531 3.14844 6.8125 3.25781 7.85938C6.05469 5.95312 8.96875 5 12 5ZM12 20H11.7891C13.0234 20.5156 14.3125 20.8828 15.6562 21.1016C17 21.3203 18.0859 21.4062 18.9141 21.3594C19.7578 21.3125 20.2734 21.1953 20.4609 21.0078C20.6172 20.8359 20.7188 20.4141 20.7656 19.7422C20.8281 19.0547 20.8047 18.1875 20.6953 17.1406C17.9609 19.0469 15.0625 20 12 20ZM12 6.00781C10.75 6.00781 9.49219 6.19531 8.22656 6.57031C6.94531 6.96094 5.83594 7.4375 4.89844 8C3.94531 8.5625 3.09375 9.14844 2.34375 9.75781C1.57812 10.3828 1 10.9375 0.609375 11.4219C0.203125 11.9219 0 12.2812 0 12.5C0 12.7188 0.195313 13.0703 0.585938 13.5547C0.992188 14.0547 1.57031 14.6094 2.32031 15.2188C3.08594 15.8438 3.9375 16.4375 4.875 17C5.82812 17.5625 6.9375 18.0312 8.20312 18.4062C9.48438 18.7969 10.75 18.9922 12 18.9922C13.25 18.9922 14.5078 18.8047 15.7734 18.4297C17.0547 18.0391 18.1641 17.5625 19.1016 17C20.0547 16.4375 20.9062 15.8516 21.6562 15.2422C22.4219 14.6172 23 14.0625 23.3906 13.5781C23.7969 13.0781 24 12.7188 24 12.5C24 12.2812 23.8047 11.9297 23.4141 11.4453C23.0078 10.9453 22.4297 10.3906 21.6797 9.78125C20.9141 9.15625 20.0625 8.5625 19.125 8C18.1719 7.4375 17.0625 6.96875 15.7969 6.59375C14.5156 6.20312 13.25 6.00781 12 6.00781ZM12 18.0078C10.4688 18.0078 9.17188 17.4766 8.10938 16.4141C7.03125 15.3359 6.49219 14.0312 6.49219 12.5C6.49219 10.9688 7.02344 9.67188 8.08594 8.60938C9.16406 7.53125 10.4688 6.99219 12 6.99219C13.5312 6.99219 14.8281 7.52344 15.8906 8.58594C16.9688 9.66406 17.5078 10.9688 17.5078 12.5C17.5078 14.0312 16.9766 15.3281 15.9141 16.3906C14.8359 17.4688 13.5312 18.0078 12 18.0078ZM12 6.99219C11.9531 7.07031 11.8828 7.17188 11.7891 7.29688C11.6953 7.4375 11.5391 7.71094 11.3203 8.11719C11.0859 8.53906 10.8828 8.95312 10.7109 9.35938C10.5234 9.78125 10.3594 10.2812 10.2188 10.8594C10.0781 11.4375 10.0078 11.9844 10.0078 12.5C10.0078 13.0156 10.0703 13.5547 10.1953 14.1172C10.3359 14.6797 10.5 15.1797 10.6875 15.6172C10.8906 16.0703 11.0859 16.4766 11.2734 16.8359C11.4766 17.2109 11.6484 17.5 11.7891 17.7031L12 18.0078C12.0469 17.9297 12.1172 17.8281 12.2109 17.7031C12.3047 17.5625 12.4609 17.2891 12.6797 16.8828C12.9141 16.4609 13.1172 16.0469 13.2891 15.6406C13.4766 15.2188 13.6406 14.7188 13.7812 14.1406C13.9219 13.5625 13.9922 13.0156 13.9922 12.5C13.9922 11.9844 13.9297 11.4453 13.8047 10.8828C13.6641 10.3203 13.5 9.82031 13.3125 9.38281C13.1094 8.92969 12.9141 8.52344 12.7266 8.16406C12.5234 7.78906 12.3516 7.5 12.2109 7.29688L12 6.99219Z" fill="#344054"/>
</svg>
