<svg width="24" height="24" viewBox="0 0 24 24" fill="none" xmlns="http://www.w3.org/2000/svg">
<path d="M3.56377 18.298L2.185 19.7001C1.92015 19.965 1.61246 20.4557 1.26192 21.1724C0.911388 21.889 0.627065 22.5161 0.408954 23.0536C0.190843 23.5911 0.0817871 23.8832 0.0817871 23.9299C2.30964 23.0886 3.71957 22.3875 4.31158 21.8267L5.48003 20.6816C4.63875 19.9026 4 19.1081 3.56377 18.298ZM19.2678 3.73905C19.8754 3.94159 20.3116 4.08959 20.5764 4.18307C20.7945 4.2298 20.9581 4.27654 21.0672 4.32328H21.1139L21.9786 3.48199L22.3291 3.83253C22.4226 3.94159 22.5355 3.99611 22.668 3.99611C22.8004 3.99611 22.9133 3.94159 23.0068 3.83253L23.7079 3.13146C23.8169 3.03798 23.8715 2.92503 23.8715 2.79261C23.8715 2.66018 23.8169 2.53944 23.7079 2.43039L21.628 0.350544C21.519 0.241488 21.3982 0.18696 21.2658 0.18696C21.1334 0.18696 21.0204 0.241488 20.927 0.350544L20.2259 1.05161C20.1324 1.14509 20.0857 1.25804 20.0857 1.39046C20.0857 1.52289 20.1324 1.64363 20.2259 1.75269L20.5297 2.03311L18.9873 3.64558C19.0497 3.64558 19.1431 3.67674 19.2678 3.73905ZM0.99318 3.83253C1.08666 3.94159 1.19961 3.99611 1.33203 3.99611C1.46446 3.99611 1.57741 3.94159 1.67088 3.83253L2.02142 3.48199L2.88607 4.32328H2.93281C3.01071 4.32328 3.17429 4.27654 3.42356 4.18307C3.68841 4.08959 4.12463 3.94159 4.73223 3.73905C4.85686 3.67674 4.95034 3.64558 5.01265 3.64558L3.4703 2.03311L3.82083 1.68258C3.92989 1.5891 3.98442 1.47615 3.98442 1.34373C3.98442 1.2113 3.92989 1.09835 3.82083 1.00488L3.11976 0.303804C3.02629 0.19475 2.91334 0.140223 2.78091 0.140223C2.64849 0.140223 2.52775 0.19475 2.41869 0.303804L0.292108 2.43039C0.183053 2.53944 0.128525 2.66018 0.128525 2.79261C0.128525 2.92503 0.183053 3.03798 0.292108 3.13146L0.99318 3.83253ZM21.7683 19.7001L20.3661 18.298C19.9455 19.1081 19.3301 19.8871 18.52 20.6349L18.5667 20.6582L18.5901 20.6816L18.6134 20.7283L18.6368 20.7517L18.6602 20.7751L18.7069 20.7985L18.7303 20.8218L18.7536 20.8452L18.777 20.8919L18.8004 20.9153L18.8238 20.9387L18.8471 20.962L18.8939 20.9854L18.9172 21.0088L18.9406 21.0321L18.964 21.0555L18.9873 21.1022L19.0107 21.1256L19.0341 21.149L19.0574 21.1724L19.0808 21.1957L19.1042 21.2191L19.1276 21.2425L19.1509 21.2658L19.1743 21.2892L19.1977 21.3126L19.2444 21.3593L19.2911 21.3827L19.3145 21.4294L19.3379 21.4528L19.3846 21.4762L19.408 21.5229L19.4313 21.5463L19.4781 21.5696L19.5015 21.6164L19.5248 21.6397L19.5716 21.6631L19.5949 21.6865L19.6183 21.7332L19.6417 21.7566L19.6884 21.7799C19.9533 22.0448 20.4362 22.3525 21.1373 22.703C21.8384 23.0536 22.4771 23.3379 23.0536 23.556C23.63 23.7741 23.9182 23.8832 23.9182 23.8832C23.8247 23.6339 23.7001 23.3184 23.5443 22.9367C23.3885 22.555 23.1198 21.9864 22.7381 21.2308C22.3564 20.4752 22.0331 19.965 21.7683 19.7001ZM19.7351 5.49173C19.1743 5.30478 18.8393 5.18793 18.7303 5.1412C17.2814 4.6115 15.9026 4.01169 14.594 3.34178C13.5501 2.7965 12.6855 2.24343 12 1.68258C11.1587 2.32133 10.2941 2.8744 9.40603 3.34178C8.09737 4.01169 6.71859 4.6115 5.26971 5.1412C5.16066 5.17235 4.99707 5.22688 4.77896 5.30478C4.56085 5.38268 4.38948 5.44499 4.26484 5.49173V6.07596V9.46447V9.815V13.4138V14.6057V14.9562V15.0497C4.26484 17.2775 5.56572 19.2405 8.16747 20.9387C8.88412 21.4216 9.84225 21.9046 11.0419 22.3875C11.2756 22.481 11.5949 22.5979 12 22.7381C12.4051 22.5979 12.7244 22.481 12.9581 22.3875C13.7994 22.0448 14.7575 21.5618 15.8325 20.9387C18.4343 19.2717 19.7351 17.3087 19.7351 15.0497V5.49173ZM15.9961 9.51121H9.49951V15.0029C9.49951 15.2055 9.70983 15.4742 10.1305 15.8092C10.5511 16.1441 10.964 16.4284 11.369 16.6621L12 16.9893C12.0623 16.9581 12.1519 16.9114 12.2687 16.8491C12.3856 16.7868 12.5881 16.6699 12.8763 16.4985C13.1646 16.3272 13.4177 16.1636 13.6358 16.0078C13.8539 15.852 14.0526 15.6767 14.2317 15.482C14.4109 15.2873 14.5005 15.1276 14.5005 15.0029V12.5024H12.7478V13.9981H11.2522V11.0068H15.9961V15.0029C15.9961 15.3768 15.8598 15.7585 15.5871 16.148C15.3145 16.5375 14.9795 16.8763 14.5823 17.1646C14.185 17.4528 13.7916 17.7176 13.4021 17.9591C13.0127 18.2006 12.6855 18.3836 12.4206 18.5083L12 18.6952C11.8909 18.6485 11.7468 18.5823 11.5677 18.4966C11.3885 18.4109 11.0691 18.2356 10.6095 17.9708C10.1499 17.7059 9.74488 17.4372 9.39435 17.1646C9.04381 16.8919 8.72444 16.557 8.43622 16.1597C8.148 15.7624 8.00389 15.3768 8.00389 15.0029V8.01559H15.9961V9.51121Z" fill="#344054"/>
</svg>
