<svg width="24" height="19" viewBox="0 0 24 19" fill="none" xmlns="http://www.w3.org/2000/svg">
<path d="M23.6956 3.65327C23.3054 3.0081 22.5717 2.59548 21.4946 2.41543C20.402 2.23539 19.1376 2.2954 17.7015 2.59548C15.8283 1.12508 13.76 0.389881 11.4966 0.389881C9.79512 0.389881 8.21854 0.802494 6.76683 1.62772C5.29951 2.45295 4.14439 3.56325 3.30146 4.95863C2.44293 6.36901 2.01366 7.89193 2.01366 9.52738C2.01366 9.9775 2.0761 10.5852 2.20098 11.3504C1.23317 12.4307 0.585367 13.4134 0.257563 14.2987C-0.085852 15.1989 -0.0702422 15.9716 0.304392 16.6168C0.694636 17.322 1.49073 17.7421 2.69268 17.8772C3.91025 18.0272 5.31512 17.8997 6.90732 17.4946C8.49951 18.2598 10.0293 18.6424 11.4966 18.6424C13.1668 18.6424 14.72 18.2523 16.1561 17.472C17.5922 16.6768 18.7395 15.604 19.598 14.2537C20.4566 12.9033 20.9171 11.4179 20.9795 9.79745C22.2283 8.56711 23.1024 7.4118 23.602 6.3315C24.1015 5.25121 24.1327 4.35847 23.6956 3.65327ZM16.999 6.15145C17.2956 6.15145 17.5298 6.24148 17.7015 6.42153C17.8888 6.60158 17.9824 6.83414 17.9824 7.11922C17.9824 7.4043 17.8966 7.63686 17.7249 7.81691C17.5376 7.99696 17.2956 8.08698 16.999 8.08698C16.6868 8.08698 16.4449 7.99696 16.2732 7.81691C16.0859 7.63686 15.9922 7.4043 15.9922 7.11922C15.9922 6.83414 16.078 6.60158 16.2498 6.42153C16.4371 6.24148 16.6868 6.15145 16.999 6.15145ZM11.4966 7.11922C11.9024 7.11922 12.2537 7.26176 12.5502 7.54684C12.8468 7.83191 12.9951 8.16951 12.9951 8.55961C12.9951 8.94972 12.8468 9.28731 12.5502 9.57239C12.2537 9.85747 11.9024 10 11.4966 10C11.0907 10 10.7395 9.85747 10.4429 9.57239C10.1463 9.28731 9.99805 8.94972 9.99805 8.55961C9.99805 8.16951 10.1463 7.83191 10.4429 7.54684C10.7395 7.26176 11.0907 7.11922 11.4966 7.11922ZM9.50634 3.27067C9.64683 3.27067 9.7639 3.31568 9.85756 3.40571C9.95122 3.49573 9.99805 3.60826 9.99805 3.7433C9.99805 3.89334 9.95122 4.01337 9.85756 4.1034C9.7639 4.19342 9.64683 4.23843 9.50634 4.23843C9.35024 4.23843 9.22537 4.19342 9.13171 4.1034C9.03805 4.01337 8.99122 3.90084 8.99122 3.7658C8.99122 3.61576 9.03805 3.49573 9.13171 3.40571C9.22537 3.31568 9.35024 3.27067 9.50634 3.27067ZM5.01073 8.08698C5.30732 8.08698 5.54146 8.16951 5.71317 8.33455C5.90049 8.5146 5.99415 8.74716 5.99415 9.03224C5.99415 9.33232 5.90829 9.56489 5.73659 9.72993C5.54927 9.90998 5.30732 10 5.01073 10C4.69854 10 4.45659 9.91748 4.28488 9.75244C4.09756 9.57239 4.0039 9.33982 4.0039 9.05475C4.0039 8.75467 4.08976 8.5221 4.26147 8.35706C4.44878 8.17701 4.69854 8.08698 5.01073 8.08698ZM16.4839 14.7938C15.9688 14.7938 15.5395 14.5688 15.1961 14.1186C15.7893 13.8035 16.6244 13.2634 17.7015 12.4982C17.8888 12.6932 17.9824 12.9783 17.9824 13.3534C17.9824 13.7435 17.8341 14.0811 17.5376 14.3662C17.241 14.6513 16.8898 14.7938 16.4839 14.7938ZM13.6039 12.7007C12.1366 13.496 10.7161 14.1561 9.34244 14.6813C7.95317 15.2064 6.75903 15.5515 5.76 15.7166C4.76098 15.8966 3.93366 15.9491 3.27805 15.8741C2.60683 15.7991 2.18537 15.604 2.01366 15.2889C1.73268 14.8388 1.96683 14.0061 2.7161 12.7908C3.01268 13.556 3.41073 14.2237 3.91025 14.7938C4.90927 14.7038 6.10342 14.4187 7.49268 13.9386C7.16488 13.7285 7.00098 13.3759 7.00098 12.8808C7.00098 12.3556 7.1961 11.9055 7.58634 11.5304C7.97659 11.1553 8.44488 10.9678 8.99122 10.9678C9.49073 10.9678 9.92 11.1178 10.279 11.4179C10.6537 11.718 10.8956 12.1081 11.0049 12.5882C11.6605 12.2131 12.1912 11.928 12.5971 11.733C14.4234 10.7127 15.9844 9.66241 17.28 8.58212C18.5756 7.48682 19.5122 6.48905 20.0898 5.5888C19.762 4.8536 19.3639 4.20842 18.8956 3.65327C20.519 3.54824 21.479 3.7433 21.7756 4.23843C21.9629 4.58353 21.9239 5.05616 21.6585 5.65632C21.3776 6.27149 20.9093 6.94667 20.2537 7.68187C19.598 8.43208 18.6927 9.2498 17.5376 10.135C16.3668 11.0353 15.0556 11.8905 13.6039 12.7007Z" fill="#344054"/>
</svg>
