<svg width="24" height="24" viewBox="0 0 24 24" fill="none" xmlns="http://www.w3.org/2000/svg">
<path d="M12.5842 9.60467C12.3505 10.2434 12.2298 10.9172 12.222 11.6261C12.2142 12.3349 12.3194 13.0594 12.5375 13.7994C12.7556 14.5394 13.1607 15.2756 13.7527 16.0078C14.3447 16.74 15.0925 17.3943 15.9961 17.9708C13.3476 14.5277 12.6777 11.9104 13.9864 10.1188C14.3447 9.6514 14.7264 9.30476 15.1314 9.07886C15.5365 8.85296 15.9104 8.7517 16.2532 8.77507C16.5959 8.79843 16.8919 8.85686 17.1412 8.95033C17.3905 9.04381 17.5774 9.16065 17.702 9.30087C17.9513 9.53456 18.111 9.83836 18.1811 10.2123C18.2512 10.5862 18.2045 10.9367 18.0409 11.2639C17.8773 11.591 17.5852 11.778 17.1646 11.8247C16.6037 11.9026 16.1636 12.0974 15.8442 12.409C15.5248 12.7205 15.369 13.0672 15.3768 13.4489C15.3846 13.8306 15.4976 14.2162 15.7157 14.6056C16.0584 15.0574 16.6388 15.2678 17.4567 15.2366C18.2746 15.2054 18.925 14.9718 19.408 14.5355C19.7351 14.2395 20.0312 13.8773 20.296 13.4489C20.5609 13.0204 20.7712 12.5219 20.927 11.9533C21.0828 11.3846 21.0594 10.7653 20.8569 10.0954C20.6543 9.4255 20.2648 8.78675 19.6884 8.17915C19.0652 7.5404 18.3759 7.12365 17.6203 6.92891C16.8647 6.73417 16.1558 6.73806 15.4937 6.9406C14.8315 7.14313 14.2356 7.48198 13.7059 7.95715C13.1762 8.43232 12.8023 8.98149 12.5842 9.60467ZM23.3573 2.47711C23.2171 2.11878 22.7186 1.86951 21.8617 1.7293C21.0049 1.58909 20.0701 1.56572 19.0574 1.65919C18.0448 1.75267 17.2191 1.93183 16.5803 2.19668C15.9104 2.49269 15.2795 2.86659 14.6874 3.3184C14.0954 3.7702 13.5385 4.34274 13.0166 5.03602C12.4946 5.7293 12.1013 6.58227 11.8364 7.59493C11.5716 8.60759 11.4859 9.71372 11.5794 10.9133C11.7975 9.57351 12.1168 8.46737 12.5375 7.59493C12.9581 6.72248 13.5579 5.88899 14.3369 5.09444C15.4742 3.91041 17.0088 3.36513 18.9406 3.45861C19.3924 3.47419 19.9883 3.58324 20.7283 3.78578C21.4684 3.98831 22.0253 4.05062 22.3992 3.97273C23.3651 3.7702 23.6845 3.27166 23.3573 2.47711ZM17.1178 21.4761C17.0243 21.3982 16.8919 21.2853 16.7205 21.1373C16.5492 20.9893 16.2259 20.6894 15.7507 20.2376C15.2756 19.7858 14.8277 19.3301 14.407 18.8705C13.9864 18.4109 13.5385 17.8461 13.0633 17.1762C12.5881 16.5063 12.2025 15.852 11.9065 15.2132C10.4265 11.9883 10.2317 8.98149 11.3223 6.19279C11.4937 5.78772 11.6845 5.37877 11.8948 4.96591C12.1052 4.55306 12.2882 4.21031 12.444 3.93768C12.5998 3.66504 12.7517 3.37682 12.8997 3.07302C13.0477 2.76922 13.1568 2.50048 13.2269 2.26679C13.297 2.0331 13.3242 1.77993 13.3087 1.5073C13.2931 1.23466 13.2308 0.958122 13.1217 0.677694C12.9659 0.334948 12.7439 0.132416 12.4557 0.0700989C12.1675 0.00778198 11.8793 0.0623093 11.591 0.233683C11.3028 0.405056 11.0497 0.584217 10.8315 0.77117C10.6134 0.958122 10.4499 1.12171 10.3408 1.26192C10.3408 1.26192 10.2902 1.33203 10.1889 1.47224C10.0876 1.61246 10.0019 1.7332 9.93184 1.83446C9.86173 1.93573 9.76047 2.09542 9.62804 2.31353C9.49562 2.53164 9.37877 2.74585 9.27751 2.95617C9.17624 3.1665 9.06329 3.41966 8.93865 3.71567C8.81402 4.01168 8.71275 4.32326 8.63486 4.65043C8.55696 4.9776 8.48296 5.33203 8.41285 5.71372C8.34274 6.09542 8.29601 6.51216 8.27264 6.96396C8.24927 7.41577 8.24537 7.87536 8.26095 8.34274C8.30769 9.49561 8.51801 10.6835 8.89192 11.9065C9.26582 13.1295 9.79941 14.3447 10.4927 15.5521C11.186 16.7595 12.1052 17.889 13.2502 18.9406C14.3953 19.9922 15.6845 20.8374 17.1178 21.4761ZM6.95229 12.5258C6.81207 11.8559 6.69133 11.334 6.59007 10.9601C6.4888 10.5862 6.30964 10.0954 6.05258 9.48782C5.79552 8.88023 5.51509 8.42842 5.21129 8.13242C4.9075 7.83641 4.49464 7.60272 3.97273 7.43134C3.45083 7.25997 2.85492 7.24439 2.185 7.38461C1.43719 7.5404 0.888022 7.9182 0.537486 8.51801C0.186951 9.11781 0.0194727 9.74488 0.035052 10.3992C0.0506314 11.0224 0.20253 11.5404 0.490748 11.9533C0.778966 12.3661 1.14898 12.6504 1.60078 12.8062C2.47322 13.1022 3.25219 13.1178 3.93768 12.853C4.62317 12.5881 4.97371 12.1597 4.98929 11.5677C5.00487 11.147 4.88802 10.8121 4.63875 10.5628C4.38948 10.3135 4.10905 10.1577 3.79747 10.0954C3.48588 10.0331 3.17429 10.0253 2.86271 10.072C2.62902 10.0876 2.49659 9.97078 2.46543 9.72151C2.43427 9.39434 2.59786 9.13729 2.95618 8.95033C3.31451 8.77896 3.70789 8.79843 4.13632 9.00876C4.56475 9.21908 4.88023 9.62803 5.08276 10.2356C5.17624 10.5161 5.37098 11.1042 5.66699 12C5.963 12.8958 6.185 13.5462 6.33301 13.9513C6.48101 14.3564 6.7186 14.8861 7.04576 15.5404C7.37293 16.1947 7.71568 16.7634 8.074 17.2463C9.49172 19.1003 11.1237 20.5881 12.9698 21.7098C14.816 22.8315 16.6271 23.5871 18.4031 23.9766C16.7829 23.2444 15.3145 22.4226 13.9981 21.5112C12.6816 20.5998 11.6222 19.7351 10.8199 18.9172C10.0175 18.0993 9.32814 17.258 8.7517 16.3934C8.17527 15.5287 7.75852 14.7965 7.50146 14.1967C7.2444 13.5969 7.06134 13.0399 6.95229 12.5258Z" fill="#344054"/>
</svg>
