<svg width="24" height="20" viewBox="0 0 24 20" fill="none" xmlns="http://www.w3.org/2000/svg">
<path d="M22.9922 2.32751H21C20.8438 2.32751 20.7266 2.36502 20.6484 2.44001C20.5547 2.53001 20.5078 2.65001 20.5078 2.80001V5.20751H19.5V1.83251C19.5 1.69751 19.4531 1.58501 19.3594 1.49501C19.2656 1.40501 19.1484 1.36001 19.0078 1.36001H16.9922C16.8516 1.36001 16.7344 1.40501 16.6406 1.49501C16.5469 1.58501 16.5 1.69751 16.5 1.83251V4.24001H15.4922V1.83251C15.4922 1.69751 15.4531 1.58501 15.375 1.49501C15.2812 1.40501 15.1562 1.36001 15 1.36001H13.0078C12.8516 1.36001 12.7266 1.40501 12.6328 1.49501C12.5391 1.58501 12.4922 1.69751 12.4922 1.83251V4.24001H11.5078V2.80001C11.5078 2.65001 11.4609 2.53751 11.3672 2.46251C11.2734 2.37251 11.1484 2.32751 10.9922 2.32751H9C8.84375 2.32751 8.72656 2.36502 8.64844 2.44001C8.55469 2.53001 8.50781 2.65001 8.50781 2.80001V5.20751H7.5V3.27251C7.5 1.68251 6.33594 0.887514 4.00781 0.887514C1.66406 0.887514 0.492188 1.68251 0.492188 3.27251V14.7925H0.539062C1.32031 14.1625 2.47656 13.8475 4.00781 13.8475C5.53906 13.8475 6.6875 14.1625 7.45312 14.7925H7.5V13.8475H8.50781V16.2325C8.50781 16.3825 8.54688 16.5025 8.625 16.5925C8.71875 16.6825 8.84375 16.7275 9 16.7275H10.9922C11.1484 16.7275 11.2734 16.6825 11.3672 16.5925C11.4609 16.5025 11.5078 16.3825 11.5078 16.2325V12.88H12.4922V15.2875C12.4922 15.4225 12.5391 15.535 12.6328 15.625C12.7266 15.715 12.8516 15.76 13.0078 15.76H15C15.1562 15.76 15.2734 15.715 15.3516 15.625C15.4453 15.535 15.4922 15.4225 15.4922 15.2875V12.88H16.5V15.2875C16.5 15.4225 16.5469 15.535 16.6406 15.625C16.7344 15.715 16.8516 15.76 16.9922 15.76H19.0078C19.1484 15.76 19.2656 15.715 19.3594 15.625C19.4531 15.535 19.5 15.4225 19.5 15.2875V13.8475H20.5078V16.2325C20.5078 16.3825 20.5469 16.5025 20.625 16.5925C20.7188 16.6825 20.8438 16.7275 21 16.7275H22.9922C23.1484 16.7275 23.2734 16.6825 23.3672 16.5925C23.4609 16.5025 23.5078 16.3825 23.5078 16.2325V2.80001C23.5078 2.65001 23.4609 2.53751 23.3672 2.46251C23.2734 2.37251 23.1484 2.32751 22.9922 2.32751ZM8.50781 12.4075H7.5V6.64751H8.50781V12.4075ZM12.4922 11.44H11.5078V5.68001H12.4922V11.44ZM16.5 11.44H15.4922V5.68001H16.5V11.44ZM20.5078 12.4075H19.5V6.64751H20.5078V12.4075ZM4.00781 14.7925C1.66406 14.7925 0.492188 15.595 0.492188 17.2C0.492188 18.805 1.65625 19.6075 3.98438 19.6075C6.32812 19.6075 7.5 18.805 7.5 17.2C7.5 15.595 6.33594 14.7925 4.00781 14.7925Z" fill="#344054"/>
</svg>
