<svg width="24" height="24" viewBox="0 0 24 24" fill="none" xmlns="http://www.w3.org/2000/svg">
<path d="M21.4645 1.0516H18.9874C18.9874 0.77117 18.89 0.533585 18.6952 0.338842C18.5005 0.1441 18.2629 0.04673 17.9825 0.04673H6.01754C5.73711 0.04673 5.49953 0.1441 5.30479 0.338842C5.11004 0.533585 5.01267 0.77117 5.01267 1.0516H2.53556C1.9747 1.0516 1.49953 1.24634 1.11004 1.63582C0.72056 2.02531 0.525818 2.49269 0.525818 3.03797C0.525818 5.85783 1.27363 8.24147 2.76925 10.1889C4.26486 12.1363 6.18112 13.3437 8.51803 13.8111C8.58035 13.8111 8.62708 13.8267 8.65824 13.8578C8.75172 13.889 8.89972 13.9046 9.10225 13.9046C9.66311 14.3096 10.111 14.9445 10.446 15.8091C10.7809 16.6738 10.9484 17.6514 10.9484 18.742C10.9484 19.038 10.9172 19.4508 10.8549 19.9805H8.56477C8.36223 19.9805 8.19086 20.0195 8.05065 20.0974C7.91043 20.1753 7.80527 20.2571 7.73517 20.3427C7.66506 20.4284 7.61443 20.5258 7.58327 20.6349C7.55211 20.7439 7.53263 20.8218 7.52484 20.8685C7.51705 20.9153 7.51316 20.9542 7.51316 20.9854V21.9903H6.50829C6.24344 21.9903 6.01365 22.0876 5.8189 22.2824C5.62416 22.4771 5.52679 22.7108 5.52679 22.9834C5.52679 23.2561 5.62416 23.4898 5.8189 23.6845C6.01365 23.8793 6.24344 23.9766 6.50829 23.9766H7.51316H16.4869H17.4917C17.7566 23.9766 17.9864 23.8793 18.1811 23.6845C18.3759 23.4898 18.4732 23.2561 18.4732 22.9834C18.4732 22.7108 18.3759 22.4771 18.1811 22.2824C17.9864 22.0876 17.7566 21.9903 17.4917 21.9903H16.4869V20.9854C16.4869 20.9542 16.483 20.9192 16.4752 20.8802C16.4674 20.8413 16.444 20.7634 16.4051 20.6465C16.3661 20.5297 16.3155 20.4284 16.2532 20.3427C16.1909 20.2571 16.0818 20.1753 15.926 20.0974C15.7702 20.0195 15.5911 19.9805 15.3885 19.9805H13.0984C13.036 19.4508 13.0049 19.038 13.0049 18.742C13.0049 17.6514 13.1724 16.6738 13.5073 15.8091C13.8423 14.9445 14.2902 14.3096 14.851 13.9046C14.8978 13.9046 14.9718 13.8968 15.073 13.8812C15.1743 13.8656 15.2483 13.8578 15.295 13.8578C15.3574 13.8578 15.4041 13.8423 15.4353 13.8111C17.7722 13.3437 19.6884 12.1363 21.184 10.1889C22.6797 8.24147 23.4275 5.85783 23.4275 3.03797C23.4431 2.49269 23.26 2.02531 22.8783 1.63582C22.4966 1.24634 22.0253 1.0516 21.4645 1.0516ZM2.53556 3.03797H5.01267V3.52872C5.01267 6.51995 5.61248 9.0516 6.81209 11.1237C5.48784 10.407 4.44403 9.34371 3.68064 7.93378C2.91725 6.52385 2.53556 4.89191 2.53556 3.03797ZM13.9864 9.51119H10.0136V8.52969C10.2785 8.52969 10.5083 8.43232 10.703 8.23758C10.8978 8.04284 10.9951 7.80525 10.9951 7.52482V4.53358C10.9951 4.37779 10.9523 4.25705 10.8666 4.17137C10.7809 4.08568 10.6602 4.04284 10.5044 4.04284V3.03797L13.0049 2.54722V7.52482C13.0049 7.80525 13.1023 8.04284 13.297 8.23758C13.4917 8.43232 13.7215 8.52969 13.9864 8.52969V9.51119ZM17.1879 11.1237C18.3876 9.0516 18.9874 6.51995 18.9874 3.52872V3.03797H21.4645C21.4645 4.89191 21.0828 6.52385 20.3194 7.93378C19.556 9.34371 18.5122 10.407 17.1879 11.1237Z" fill="#344054"/>
</svg>
