<svg width="17" height="33" viewBox="0 0 17 33" fill="none" xmlns="http://www.w3.org/2000/svg">
<path d="M10.3831 22.8361C10.7165 21.6694 10.4831 19.1361 6.88315 18.3361C6.88307 19.6694 7.58295 22.4361 10.3831 22.8361Z" fill="#60A5E9"/>
<path d="M10.7781 17.6907C10.7756 16.4773 9.85039 14.1075 6.16959 14.3348C6.53845 15.6161 7.97655 18.0811 10.7781 17.6907Z" fill="#67AAED"/>
<path d="M11.7915 13.1615C11.4315 12.0027 9.84906 10.0107 6.39869 11.3126C7.12874 12.4283 9.22936 14.3601 11.7915 13.1615Z" fill="#6CAEF1"/>
<path d="M8.80235 7.74384C8.2658 6.65556 6.39156 4.93526 3.18696 6.76024C4.08236 7.74819 6.45898 9.32805 8.80235 7.74384Z" fill="#71B3F5"/>
<path d="M6.77506 4.80136C6.92914 3.59783 6.31745 1.12841 2.63807 0.878948C2.83853 2.19713 3.94656 4.82706 6.77506 4.80136Z" fill="#78B9F9"/>
<path d="M11.3834 23.8374C12.5501 24.1704 15.0834 23.9363 15.8823 20.3361C14.549 20.3364 11.7825 21.0371 11.3834 23.8374Z" fill="#60A5E9"/>
<path d="M12.8069 18.4757C13.9997 18.2537 16.1631 16.915 15.2735 13.336C14.0801 13.9306 11.916 15.791 12.8069 18.4757Z" fill="#67AAED"/>
<path d="M12.2489 11.6119C13.3812 11.2137 15.2927 9.57668 13.8797 6.21331C12.8034 6.97573 10.9704 9.12283 12.2489 11.6119Z" fill="#6CAEF1"/>
<path d="M10.9314 6.46448C11.8924 5.92943 13.3649 4.15468 11.5675 1.3361C10.7137 2.19148 9.39102 4.4147 10.9314 6.46448Z" fill="#71B3F5"/>
<path d="M5.38317 26.8361C6.2165 25.6694 7.18317 22.9361 4.38317 21.3361C3.71643 22.5027 2.98299 25.2361 5.38317 26.8361Z" fill="#5AA0E5"/>
<path d="M6.96429 27.8818C8.24098 28.5341 11.0869 29.0876 12.257 26.0825C11.0048 25.5949 8.19327 25.2721 6.96429 27.8818Z" fill="#5AA0E5"/>
<path d="M0.883424 30.3361C1.88342 29.3361 3.28342 26.7361 0.883424 24.3361C0.216767 25.3361 -0.716551 27.9361 0.883424 30.3361Z" fill="#5198DF"/>
<path d="M2.85816 31.3389C3.8779 32.3188 6.5053 33.6667 8.85697 31.2193C7.84387 30.5727 5.22578 29.6914 2.85816 31.3389Z" fill="#5198DF"/>
</svg>
