<svg width="18" height="33" viewBox="0 0 18 33" fill="none" xmlns="http://www.w3.org/2000/svg">
<path d="M7.11682 22.8361C6.78349 21.6694 7.01682 19.1361 10.6168 18.3361C10.6169 19.6694 9.91702 22.4361 7.11682 22.8361Z" fill="#9865FB"/>
<path d="M6.72187 17.6907C6.72437 16.4773 7.64958 14.1075 11.3304 14.3348C10.9615 15.6161 9.52342 18.0811 6.72187 17.6907Z" fill="#AC82FF"/>
<path d="M5.70852 13.1615C6.06845 12.0027 7.65091 10.0107 11.1013 11.3126C10.3712 12.4283 8.27061 14.3601 5.70852 13.1615Z" fill="#BA9AF8"/>
<path d="M8.69762 7.74384C9.23417 6.65556 11.1084 4.93526 14.313 6.76024C13.4176 7.74819 11.041 9.32805 8.69762 7.74384Z" fill="#B79AF0"/>
<path d="M10.7249 4.80136C10.5708 3.59783 11.1825 1.12841 14.8619 0.878948C14.6614 2.19713 13.5534 4.82706 10.7249 4.80136Z" fill="#C4A6FF"/>
<path d="M6.11661 23.8374C4.94985 24.1704 2.41658 23.9363 1.61762 20.3361C2.95096 20.3364 5.71742 21.0371 6.11661 23.8374Z" fill="#9865FB"/>
<path d="M4.69311 18.4757C3.50024 18.2537 1.33689 16.915 2.22647 13.336C3.41988 13.9306 5.58399 15.791 4.69311 18.4757Z" fill="#AC82FF"/>
<path d="M5.25107 11.6119C4.11873 11.2137 2.20728 9.57668 3.62024 6.21331C4.69654 6.97573 6.52952 9.12283 5.25107 11.6119Z" fill="#BA9AF8"/>
<path d="M6.56856 6.46448C5.60761 5.92943 4.13504 4.15468 5.93242 1.3361C6.7863 2.19148 8.10895 4.4147 6.56856 6.46448Z" fill="#B79AF0"/>
<path d="M12.1168 26.8361C11.2835 25.6694 10.3168 22.9361 13.1168 21.3361C13.7835 22.5027 14.517 25.2361 12.1168 26.8361Z" fill="#8D61E3"/>
<path d="M10.5357 27.8818C9.25899 28.5341 6.41308 29.0876 5.24299 26.0825C6.49515 25.5949 9.3067 25.2721 10.5357 27.8818Z" fill="#8D61E3"/>
<path d="M16.6165 30.3361C15.6165 29.3361 14.2165 26.7361 16.6165 24.3361C17.2832 25.3361 18.2165 27.9361 16.6165 30.3361Z" fill="#743DDF"/>
<path d="M14.6418 31.3389C13.6221 32.3188 10.9947 33.6667 8.643 31.2193C9.6561 30.5727 12.2742 29.6914 14.6418 31.3389Z" fill="#743DDF"/>
</svg>
